<svg width="16" height="16" viewBox="0 0 16 16" fill="none" xmlns="http://www.w3.org/2000/svg">
<g clip-path="url(#clip0_3_214)">
<path d="M10.7473 4.38406C10.9817 4.14815 11.3609 4.14815 11.5953 4.38406C11.8297 4.61997 11.8297 5.00242 11.5953 5.23832L7.27194 9.59018L10.3072 14.6159C10.4176 14.7987 10.5913 14.7971 10.6633 14.7891C10.7337 14.7794 10.9041 14.7359 10.9649 14.5314L12.8225 8.27939C12.9185 7.95894 13.2521 7.77697 13.5698 7.87359C13.8874 7.9694 14.0682 8.30596 13.973 8.6256L12.1153 14.8768C11.9353 15.4815 11.4377 15.9066 10.8161 15.9863C10.7465 15.996 10.6777 16 10.6089 16C10.0664 16 9.57042 15.7214 9.28161 15.2432L6.0015 9.81159C5.85829 9.57327 5.89429 9.26731 6.0903 9.07085L10.7473 4.38406ZM14.0031 0.0618351C14.5512 -0.0975852 15.1448 0.0561991 15.5472 0.466022C15.9496 0.87504 16.0984 1.47166 15.9344 2.02399L14.9352 5.38551C14.84 5.70515 14.5072 5.88631 14.1887 5.7913C13.8711 5.69549 13.6903 5.35894 13.7855 5.0401L14.7848 1.67778C14.8408 1.48937 14.7408 1.36216 14.6952 1.31626C14.6496 1.26956 14.5216 1.16812 14.3367 1.22206L1.4635 4.96522C1.25869 5.0248 1.21389 5.1963 1.20429 5.26715C1.19549 5.338 1.19229 5.51514 1.37469 5.62786L4.08359 7.29452C4.366 7.46844 4.4556 7.84042 4.282 8.12544C4.16919 8.31063 3.97239 8.41369 3.76998 8.41369C3.66357 8.41369 3.55557 8.38551 3.45797 8.32512L0.749073 6.65765C0.212254 6.32754 -0.0693557 5.73333 0.0146472 5.10612C0.0986502 4.4781 0.526665 3.97971 1.13069 3.80419L14.0031 0.0618351Z" fill="#FBF9F9"/>
</g>
<defs>
<clipPath id="clip0_3_214">
<rect width="16" height="16" fill="white"/>
</clipPath>
</defs>
</svg>
