<svg xmlns="http://www.w3.org/2000/svg" width="22" height="22" viewBox="0 0 22 22" fill="none">
    <g clip-path="url(#clip0_51_13)">
        <path d="M11 6.70312C10.1502 6.70313 9.3194 6.95513 8.61279 7.42728C7.90617 7.89943 7.35543 8.57051 7.03021 9.35566C6.70499 10.1408 6.61989 11.0048 6.78569 11.8383C6.95149 12.6718 7.36072 13.4374 7.96165 14.0384C8.56258 14.6393 9.32821 15.0485 10.1617 15.2143C10.9952 15.3801 11.8592 15.295 12.6443 14.9698C13.4295 14.6446 14.1006 14.0938 14.5727 13.3872C15.0449 12.6806 15.2969 11.8498 15.2969 11C15.2969 9.8604 14.8442 8.76747 14.0384 7.96165C13.2325 7.15583 12.1396 6.70312 11 6.70312ZM11 14.2656C10.3541 14.2656 9.72275 14.0741 9.18572 13.7153C8.64869 13.3564 8.23013 12.8464 7.98296 12.2497C7.73579 11.653 7.67112 10.9964 7.79712 10.3629C7.92313 9.72944 8.23415 9.14756 8.69086 8.69085C9.14756 8.23415 9.72944 7.92313 10.3629 7.79712C10.9964 7.67112 11.653 7.73579 12.2497 7.98296C12.8464 8.23012 13.3564 8.64869 13.7153 9.18572C14.0741 9.72274 14.2656 10.3541 14.2656 11C14.2656 11.8661 13.9216 12.6967 13.3091 13.3091C12.6967 13.9216 11.8661 14.2656 11 14.2656V14.2656Z" fill="#BDB9B9"/>
        <path d="M20.7969 8.25H19.262C19.2263 8.24973 19.1915 8.23833 19.1626 8.21739C19.1336 8.19644 19.1119 8.16699 19.1005 8.13312C19.0006 7.84943 18.8858 7.57118 18.7567 7.29953C18.7406 7.26748 18.7349 7.23118 18.7405 7.19574C18.746 7.16029 18.7625 7.12747 18.7877 7.10187L19.8722 6.01562C19.9839 5.9039 20.0726 5.77127 20.133 5.62529C20.1935 5.47931 20.2246 5.32285 20.2246 5.16484C20.2246 5.00684 20.1935 4.85038 20.133 4.7044C20.0726 4.55842 19.9839 4.42578 19.8722 4.31406L17.6842 2.12781C17.5725 2.01608 17.4399 1.92745 17.2939 1.86698C17.1479 1.80651 16.9914 1.77538 16.8334 1.77538C16.6754 1.77538 16.519 1.80651 16.373 1.86698C16.227 1.92745 16.0944 2.01608 15.9827 2.12781L14.8981 3.21234C14.8725 3.23749 14.8397 3.25399 14.8043 3.25953C14.7688 3.26508 14.7325 3.2594 14.7005 3.24328C14.4288 3.11412 14.1506 2.99938 13.8669 2.89953C13.833 2.8881 13.8036 2.86639 13.7826 2.83743C13.7617 2.80847 13.7503 2.77371 13.75 2.73797V1.20312C13.75 0.884036 13.6232 0.578017 13.3976 0.352387C13.172 0.126757 12.866 0 12.5469 0H9.45312C9.13404 0 8.82802 0.126757 8.60239 0.352387C8.37676 0.578017 8.25 0.884036 8.25 1.20312V2.73797C8.24973 2.77371 8.23833 2.80847 8.21739 2.83743C8.19644 2.86639 8.16699 2.8881 8.13312 2.89953C7.84943 2.99942 7.57118 3.11416 7.29953 3.24328C7.26748 3.2594 7.23118 3.26508 7.19574 3.25953C7.16029 3.25399 7.12747 3.23749 7.10187 3.21234L6.01562 2.12781C5.9039 2.01608 5.77127 1.92745 5.62529 1.86698C5.47931 1.80651 5.32285 1.77538 5.16484 1.77538C5.00684 1.77538 4.85038 1.80651 4.7044 1.86698C4.55842 1.92745 4.42578 2.01608 4.31406 2.12781L2.12781 4.31578C2.01608 4.4275 1.92745 4.56014 1.86698 4.70612C1.80651 4.8521 1.77538 5.00856 1.77538 5.16656C1.77538 5.32457 1.80651 5.48103 1.86698 5.62701C1.92745 5.77298 2.01608 5.90562 2.12781 6.01734L3.21234 7.10187C3.23749 7.12747 3.25399 7.16029 3.25953 7.19574C3.26508 7.23118 3.2594 7.26748 3.24328 7.29953C3.11412 7.57116 2.99938 7.84941 2.89953 8.13312C2.8881 8.16699 2.86639 8.19644 2.83743 8.21739C2.80847 8.23833 2.77371 8.24973 2.73797 8.25H1.20312C0.884036 8.25 0.578017 8.37676 0.352387 8.60239C0.126757 8.82802 0 9.13404 0 9.45312L0 12.5469C0 12.866 0.126757 13.172 0.352387 13.3976C0.578017 13.6232 0.884036 13.75 1.20312 13.75H2.73797C2.77371 13.7503 2.80847 13.7617 2.83743 13.7826C2.86639 13.8036 2.8881 13.833 2.89953 13.8669C2.99942 14.1506 3.11416 14.4288 3.24328 14.7005C3.2594 14.7325 3.26508 14.7688 3.25953 14.8043C3.25399 14.8397 3.23749 14.8725 3.21234 14.8981L2.12781 15.9844C2.01608 16.0961 1.92745 16.2287 1.86698 16.3747C1.80651 16.5207 1.77538 16.6771 1.77538 16.8352C1.77538 16.9932 1.80651 17.1496 1.86698 17.2956C1.92745 17.4416 2.01608 17.5742 2.12781 17.6859L4.31578 19.8739C4.4275 19.9856 4.56014 20.0743 4.70612 20.1347C4.8521 20.1952 5.00856 20.2263 5.16656 20.2263C5.32457 20.2263 5.48103 20.1952 5.62701 20.1347C5.77298 20.0743 5.90562 19.9856 6.01734 19.8739L7.10187 18.7894C7.12747 18.7642 7.16029 18.7477 7.19574 18.7422C7.23118 18.7366 7.26748 18.7423 7.29953 18.7584C7.57116 18.8876 7.84941 19.0023 8.13312 19.1022C8.16699 19.1136 8.19644 19.1353 8.21739 19.1643C8.23833 19.1932 8.24973 19.228 8.25 19.2638V20.7969C8.25 21.116 8.37676 21.422 8.60239 21.6476C8.82802 21.8732 9.13404 22 9.45312 22H12.5469C12.866 22 13.172 21.8732 13.3976 21.6476C13.6232 21.422 13.75 21.116 13.75 20.7969V19.262C13.7503 19.2263 13.7617 19.1915 13.7826 19.1626C13.8036 19.1336 13.833 19.1119 13.8669 19.1005C14.1506 19.0006 14.4288 18.8858 14.7005 18.7567C14.7325 18.7406 14.7688 18.7349 14.8043 18.7405C14.8397 18.746 14.8725 18.7625 14.8981 18.7877L15.9844 19.8722C16.0961 19.9839 16.2287 20.0726 16.3747 20.133C16.5207 20.1935 16.6771 20.2246 16.8352 20.2246C16.9932 20.2246 17.1496 20.1935 17.2956 20.133C17.4416 20.0726 17.5742 19.9839 17.6859 19.8722L19.8739 17.6842C19.9856 17.5725 20.0743 17.4399 20.1347 17.2939C20.1952 17.1479 20.2263 16.9914 20.2263 16.8334C20.2263 16.6754 20.1952 16.519 20.1347 16.373C20.0743 16.227 19.9856 16.0944 19.8739 15.9827L18.7894 14.8981C18.7642 14.8725 18.7477 14.8397 18.7422 14.8043C18.7366 14.7688 18.7423 14.7325 18.7584 14.7005C18.8876 14.4288 19.0023 14.1506 19.1022 13.8669C19.1136 13.833 19.1353 13.8036 19.1643 13.7826C19.1932 13.7617 19.228 13.7503 19.2638 13.75H20.7969C21.116 13.75 21.422 13.6232 21.6476 13.3976C21.8732 13.172 22 12.866 22 12.5469V9.45312C22 9.13404 21.8732 8.82802 21.6476 8.60239C21.422 8.37676 21.116 8.25 20.7969 8.25V8.25ZM20.9688 12.5469C20.9688 12.5925 20.9506 12.6362 20.9184 12.6684C20.8862 12.7006 20.8425 12.7188 20.7969 12.7188H19.262C19.0127 12.719 18.7697 12.7967 18.5665 12.9411C18.3633 13.0856 18.2099 13.2895 18.1277 13.5248C18.0397 13.774 17.9387 14.0184 17.8252 14.257C17.7163 14.4819 17.6801 14.7352 17.7217 14.9816C17.7632 15.228 17.8805 15.4553 18.0572 15.632L19.1417 16.7166C19.1737 16.7488 19.1917 16.7923 19.1917 16.8377C19.1917 16.8831 19.1737 16.9267 19.1417 16.9589L16.9555 19.1434C16.9233 19.1754 16.8797 19.1934 16.8343 19.1934C16.7889 19.1934 16.7453 19.1754 16.7131 19.1434L15.6286 18.0589C15.4519 17.8822 15.2245 17.765 14.9781 17.7234C14.7317 17.6818 14.4785 17.718 14.2536 17.8269C14.0144 17.9405 13.7695 18.0415 13.5197 18.1294C13.2847 18.2119 13.0811 18.3654 12.937 18.5686C12.7929 18.7718 12.7155 19.0147 12.7153 19.2638V20.7969C12.7153 20.8425 12.6972 20.8862 12.665 20.9184C12.6327 20.9506 12.589 20.9688 12.5434 20.9688H9.45312C9.40754 20.9688 9.36382 20.9506 9.33159 20.9184C9.29936 20.8862 9.28125 20.8425 9.28125 20.7969V19.262C9.28097 19.0127 9.20326 18.7697 9.05885 18.5665C8.91445 18.3633 8.71049 18.2099 8.47516 18.1277C8.22597 18.0397 7.98157 17.9387 7.74297 17.8252C7.51806 17.7163 7.26483 17.6801 7.01843 17.7217C6.77202 17.7632 6.54468 17.8805 6.36797 18.0572L5.28344 19.1417C5.25123 19.1737 5.20767 19.1917 5.16227 19.1917C5.11686 19.1917 5.0733 19.1737 5.04109 19.1417L2.85656 16.9555C2.82455 16.9233 2.80658 16.8797 2.80658 16.8343C2.80658 16.7889 2.82455 16.7453 2.85656 16.7131L3.94109 15.6286C4.11777 15.4519 4.23504 15.2245 4.27662 14.9781C4.3182 14.7317 4.28203 14.4785 4.17313 14.2536C4.05948 14.0144 3.95851 13.7695 3.87063 13.5197C3.7876 13.2856 3.63415 13.0829 3.43135 12.9395C3.22856 12.7961 2.98635 12.719 2.73797 12.7188H1.20312C1.15754 12.7188 1.11382 12.7006 1.08159 12.6684C1.04936 12.6362 1.03125 12.5925 1.03125 12.5469V9.45312C1.03125 9.40754 1.04936 9.36382 1.08159 9.33159C1.11382 9.29936 1.15754 9.28125 1.20312 9.28125H2.73797C2.98726 9.28097 3.23031 9.20326 3.43353 9.05885C3.63674 8.91445 3.79008 8.71049 3.87234 8.47516C3.96029 8.22597 4.06126 7.98157 4.17484 7.74297C4.28375 7.51806 4.31992 7.26483 4.27834 7.01843C4.23676 6.77202 4.11949 6.54468 3.94281 6.36797L2.85828 5.28344C2.82627 5.25123 2.8083 5.20767 2.8083 5.16227C2.8083 5.11686 2.82627 5.0733 2.85828 5.04109L5.04453 2.85656C5.07673 2.82455 5.1203 2.80658 5.1657 2.80658C5.21111 2.80658 5.25467 2.82455 5.28688 2.85656L6.37141 3.94109C6.54812 4.11777 6.77546 4.23504 7.02186 4.27662C7.26827 4.3182 7.5215 4.28203 7.74641 4.17313C7.98556 4.05948 8.23054 3.95851 8.48031 3.87063C8.7144 3.7876 8.91706 3.63415 9.06046 3.43135C9.20387 3.22856 9.28099 2.98635 9.28125 2.73797V1.20312C9.28125 1.15754 9.29936 1.11382 9.33159 1.08159C9.36382 1.04936 9.40754 1.03125 9.45312 1.03125H12.5469C12.5925 1.03125 12.6362 1.04936 12.6684 1.08159C12.7006 1.11382 12.7188 1.15754 12.7188 1.20312V2.73797C12.719 2.98726 12.7967 3.23031 12.9411 3.43353C13.0856 3.63674 13.2895 3.79008 13.5248 3.87234C13.774 3.96029 14.0184 4.06126 14.257 4.17484C14.4819 4.28375 14.7352 4.31992 14.9816 4.27834C15.228 4.23676 15.4553 4.11949 15.632 3.94281L16.7166 2.85828C16.7488 2.82627 16.7923 2.8083 16.8377 2.8083C16.8831 2.8083 16.9267 2.82627 16.9589 2.85828L19.1469 5.04625C19.1789 5.07845 19.1969 5.12202 19.1969 5.16742C19.1969 5.21283 19.1789 5.25639 19.1469 5.28859L18.0623 6.37313C17.8857 6.54984 17.7684 6.77718 17.7268 7.02358C17.6852 7.26998 17.7214 7.52322 17.8303 7.74813C17.944 7.98728 18.0449 8.23226 18.1328 8.48203C18.2154 8.71704 18.3688 8.92063 18.572 9.06471C18.7752 9.20879 19.0181 9.28625 19.2672 9.28641H20.7969C20.8425 9.28641 20.8862 9.30451 20.9184 9.33675C20.9506 9.36898 20.9688 9.4127 20.9688 9.45828V12.5469Z" fill="#BDB9B9"/>
    </g>
    <defs>
        <clipPath id="clip0_51_13">
            <rect width="22" height="22" fill="white"/>
        </clipPath>
    </defs>
</svg>
