<svg width="131" height="34" viewBox="0 0 131 34" fill="none" xmlns="http://www.w3.org/2000/svg">
<path d="M22.24 26L17.536 12.048L12.928 26H9.28L3.04 7.44C2.72 6.45867 2.35733 5.712 1.952 5.2C1.54667 4.688 0.949333 4.13333 0.16 3.536L0.576 3.024H7.776L8.16 4.112L7.424 4.304C6.912 4.432 6.53867 4.60266 6.304 4.816C6.09067 5.02933 5.984 5.328 5.984 5.712C5.984 6.05333 6.10133 6.576 6.336 7.28L11.552 23.344L16.32 8.464L16 7.44C15.68 6.45867 15.3173 5.712 14.912 5.2C14.5067 4.688 13.9093 4.13333 13.12 3.536L13.536 3.024H20.736L21.12 4.112L20.384 4.304C19.872 4.432 19.4987 4.60266 19.264 4.816C19.0507 5.02933 18.944 5.328 18.944 5.712C18.944 6.05333 19.0613 6.576 19.296 7.28L24.512 23.344L28.992 9.424C29.3973 8.144 29.6 7.152 29.6 6.448C29.5573 5.27467 29.0773 4.56 28.16 4.304L27.424 4.112L27.808 3.024H33.888L34.304 3.536L33.824 4.112C33.0347 5.05067 32.448 6.11733 32.064 7.312L25.888 26H22.24ZM46.886 23.6C46.0967 24.5173 45.158 25.2213 44.07 25.712C42.982 26.2027 41.8087 26.448 40.55 26.448C39.078 26.448 37.7873 26.1067 36.678 25.424C35.5687 24.7413 34.7047 23.7813 34.086 22.544C33.4887 21.3067 33.19 19.8773 33.19 18.256C33.19 16.5493 33.5313 15.056 34.214 13.776C34.8967 12.4747 35.8567 11.472 37.094 10.768C38.3527 10.0427 39.814 9.68 41.478 9.68C42.6513 9.68 43.6433 9.904 44.454 10.352C45.286 10.7787 45.9047 11.3547 46.31 12.08C46.7153 12.784 46.918 13.552 46.918 14.384C46.918 15.28 46.6727 16.144 46.182 16.976C45.7127 17.808 45.0193 18.4907 44.102 19.024C43.1847 19.536 42.086 19.792 40.806 19.792C40.1233 19.792 39.366 19.664 38.534 19.408C37.702 19.152 37.286 18.7787 37.286 18.288C37.286 18.1173 37.3287 17.9573 37.414 17.808C37.5207 17.6587 37.638 17.584 37.766 17.584C37.83 17.584 38.0433 17.6587 38.406 17.808C38.7687 17.936 39.238 18 39.814 18C41.094 18 42.086 17.6373 42.79 16.912C43.5153 16.1867 43.878 15.3333 43.878 14.352C43.878 13.52 43.6113 12.8053 43.078 12.208C42.5447 11.5893 41.798 11.28 40.838 11.28C39.4727 11.28 38.406 11.888 37.638 13.104C36.87 14.2987 36.486 16.016 36.486 18.256C36.486 20.1547 36.8913 21.648 37.702 22.736C38.5127 23.8027 39.686 24.336 41.222 24.336C43.0993 24.336 44.6567 23.728 45.894 22.512C45.9793 22.4267 46.0753 22.384 46.182 22.384C46.3527 22.384 46.534 22.4907 46.726 22.704C46.918 22.896 47.014 23.0987 47.014 23.312C47.014 23.4187 46.9713 23.5147 46.886 23.6ZM58.3195 11.472C57.7435 11.472 57.2742 11.5467 56.9115 11.696C56.5488 11.824 56.3355 11.888 56.2715 11.888C56.1435 11.888 56.0262 11.8133 55.9195 11.664C55.8342 11.5147 55.7915 11.3547 55.7915 11.184C55.7915 10.928 55.8875 10.736 56.0795 10.608C57.0608 9.98933 58.1382 9.68 59.3115 9.68C60.6342 9.68 61.8075 10.0107 62.8315 10.672C63.8768 11.3333 64.6875 12.2507 65.2635 13.424C65.8395 14.5973 66.1275 15.9307 66.1275 17.424C66.1275 19.1307 65.7648 20.6773 65.0395 22.064C64.3142 23.4293 63.3222 24.5067 62.0635 25.296C60.8048 26.064 59.3862 26.448 57.8075 26.448C56.5702 26.448 55.4182 26.2667 54.3515 25.904C53.2848 25.5413 52.4422 25.0507 51.8235 24.432V4.432C51.8235 4.176 51.7702 3.99467 51.6635 3.888C51.5782 3.78133 51.4182 3.728 51.1835 3.728H49.7755L49.4875 2.896C50.1062 2.34133 50.8102 1.88267 51.5995 1.52C52.3888 1.15733 53.0928 0.975998 53.7115 0.975998C54.0102 0.975998 54.2555 1.072 54.4475 1.264C54.6395 1.456 54.7355 1.70133 54.7355 2V23.632C55.2475 23.9947 55.7595 24.2613 56.2715 24.432C56.8048 24.5813 57.4128 24.656 58.0955 24.656C59.5248 24.656 60.6555 24.0693 61.4875 22.896C62.3195 21.7013 62.7355 20.0907 62.7355 18.064C62.7355 16.784 62.5435 15.6427 62.1595 14.64C61.7968 13.6373 61.2848 12.8587 60.6235 12.304C59.9622 11.7493 59.1942 11.472 58.3195 11.472ZM71.0505 10.096C71.0505 7.25867 71.5518 5.02933 72.5545 3.408C73.5572 1.78666 75.0398 0.975998 77.0025 0.975998C78.3892 0.975998 79.5305 1.30666 80.4265 1.968C81.3225 2.62933 81.7705 3.48267 81.7705 4.528C81.7705 5.44533 81.4718 6.20267 80.8745 6.8C80.2985 7.376 79.5518 7.664 78.6345 7.664C78.2292 7.664 78.0265 7.54667 78.0265 7.312C78.0265 7.248 78.1012 7.09867 78.2505 6.864C78.3998 6.62933 78.5278 6.34133 78.6345 6C78.7412 5.65867 78.7945 5.22133 78.7945 4.688C78.7945 4.00533 78.6025 3.46133 78.2185 3.056C77.8345 2.62933 77.3118 2.416 76.6505 2.416C75.7118 2.416 75.0185 2.88533 74.5705 3.824C74.1438 4.74133 73.9305 6.02133 73.9305 7.664V10.096H78.4105C78.4105 10.544 78.3465 10.9493 78.2185 11.312C78.0905 11.6747 77.9092 11.9413 77.6745 12.112H73.9305V26.416C73.9305 28.6347 73.4398 30.384 72.4585 31.664C71.4985 32.9653 70.0692 33.616 68.1705 33.616C67.0185 33.616 66.0692 33.3173 65.3225 32.72C64.5758 32.144 64.2025 31.3547 64.2025 30.352C64.2025 29.5413 64.5012 28.8587 65.0985 28.304C65.6958 27.7493 66.4425 27.472 67.3385 27.472C67.7438 27.472 67.9465 27.5893 67.9465 27.824C67.9465 27.888 67.8612 28.0267 67.6905 28.24C67.5198 28.4747 67.3705 28.7307 67.2425 29.008C67.1145 29.3067 67.0505 29.68 67.0505 30.128C67.0505 30.7893 67.2212 31.3013 67.5625 31.664C67.8825 32.048 68.2985 32.24 68.8105 32.24C69.4505 32.24 69.9838 31.952 70.4105 31.376C70.8372 30.8213 71.0505 29.9893 71.0505 28.88V12.112H68.2345C68.2345 11.536 68.2772 11.1627 68.3625 10.992C68.4478 10.8213 68.6612 10.6933 69.0025 10.608L71.0505 10.096ZM84.266 23.184C84.266 23.9093 84.586 24.272 85.226 24.272C85.7593 24.272 86.2927 24.048 86.826 23.6L87.434 24.432C86.8793 25.0507 86.282 25.5413 85.642 25.904C85.002 26.2667 84.4047 26.448 83.85 26.448C82.9753 26.448 82.346 26.1813 81.962 25.648C81.578 25.1147 81.386 24.2507 81.386 23.056V4.432C81.386 4.176 81.3327 3.99467 81.226 3.888C81.1407 3.78133 80.9807 3.728 80.746 3.728H79.338L79.05 2.896C79.6687 2.34133 80.3727 1.88267 81.162 1.52C81.9513 1.15733 82.6553 0.975998 83.274 0.975998C83.5727 0.975998 83.818 1.072 84.01 1.264C84.202 1.456 84.298 1.70133 84.298 2L84.266 23.184ZM89.3463 18.064C89.3463 16.3573 89.6556 14.8747 90.2743 13.616C90.9143 12.3573 91.8209 11.3867 92.9943 10.704C94.1889 10.0213 95.5756 9.68 97.1543 9.68C98.7329 9.68 100.109 10.0213 101.282 10.704C102.456 11.3867 103.362 12.3573 104.002 13.616C104.642 14.8747 104.962 16.3573 104.962 18.064C104.962 19.7493 104.642 21.232 104.002 22.512C103.362 23.7707 102.456 24.7413 101.282 25.424C100.109 26.1067 98.7329 26.448 97.1543 26.448C95.5756 26.448 94.1889 26.1067 92.9943 25.424C91.8209 24.7413 90.9143 23.7707 90.2743 22.512C89.6556 21.232 89.3463 19.7493 89.3463 18.064ZM101.602 18.16C101.602 17.1573 101.464 16.1333 101.186 15.088C100.909 14.0427 100.44 13.1573 99.7783 12.432C99.1383 11.7067 98.2956 11.344 97.2503 11.344C96.3543 11.344 95.5543 11.632 94.8503 12.208C94.1676 12.7627 93.6343 13.552 93.2503 14.576C92.8663 15.6 92.6743 16.7733 92.6743 18.096C92.6743 20.1227 93.0689 21.7333 93.8583 22.928C94.6476 24.1227 95.7143 24.72 97.0583 24.72C97.9329 24.72 98.7116 24.4533 99.3943 23.92C100.098 23.3653 100.642 22.5973 101.026 21.616C101.41 20.6133 101.602 19.4613 101.602 18.16ZM115.334 24.368C116.017 24.368 116.625 24.0053 117.158 23.28C117.692 22.5333 118.097 21.5627 118.374 20.368C118.673 19.152 118.822 17.8827 118.822 16.56C118.822 15.536 118.705 14.544 118.47 13.584C118.236 12.624 117.884 11.7707 117.414 11.024L117.094 10.512L117.478 10.096L121.222 9.68C121.329 11.0027 121.382 12.1333 121.382 13.072C121.382 14.0533 121.329 15.0987 121.222 16.208L121.894 20.688C122.086 22.0107 122.374 22.96 122.758 23.536C123.142 24.0907 123.708 24.368 124.454 24.368C125.137 24.368 125.745 24.0053 126.278 23.28C126.812 22.5333 127.217 21.5627 127.494 20.368C127.793 19.152 127.942 17.8827 127.942 16.56C127.942 15.536 127.825 14.544 127.59 13.584C127.356 12.624 127.004 11.7707 126.534 11.024L126.214 10.512L126.598 10.096L130.342 9.68C130.449 11.0027 130.502 12.1333 130.502 13.072C130.502 15.9093 130.214 18.3413 129.638 20.368C129.062 22.3733 128.294 23.888 127.334 24.912C126.374 25.936 125.34 26.448 124.23 26.448C122.993 26.448 122.022 26.1493 121.318 25.552C120.636 24.9333 120.102 23.888 119.718 22.416C119.142 23.7387 118.438 24.7413 117.606 25.424C116.796 26.1067 115.921 26.448 114.982 26.448C113.873 26.448 112.977 26.2453 112.294 25.84C111.633 25.4133 111.1 24.7413 110.694 23.824C110.289 22.8853 109.969 21.584 109.734 19.92L108.742 13.136C108.7 12.8587 108.636 12.6773 108.55 12.592C108.465 12.4853 108.316 12.432 108.102 12.432H106.694L106.406 11.6C106.961 11.0453 107.622 10.5867 108.39 10.224C109.158 9.86133 109.841 9.68 110.438 9.68C111.014 9.68 111.356 10.0213 111.462 10.704L112.902 20.688C113.094 22.0107 113.372 22.96 113.734 23.536C114.097 24.0907 114.63 24.368 115.334 24.368Z" fill="white"/>
</svg>
