<svg width="15" height="32" viewBox="0 0 15 32" fill="none" xmlns="http://www.w3.org/2000/svg">
<path d="M14.2048 3.60791C13.5557 3.60791 13.03 4.13398 13.03 4.78242V23.4096C13.03 26.4795 10.6345 28.9776 7.6902 28.9776C4.74514 28.9776 2.35007 26.4809 2.34901 23.4124C2.34901 23.4117 2.34936 23.411 2.34936 23.4103V5.71358C2.34936 3.85793 3.85934 2.34901 5.71429 2.34901C7.56466 2.34901 9.06936 3.84703 9.08027 5.69354V23.7194C9.08027 24.442 8.49371 25.0293 7.77248 25.0293C7.04985 25.0293 6.46189 24.442 6.46189 23.7194V7.57626C6.46189 6.92782 5.93618 6.40176 5.28738 6.40176C4.63895 6.40176 4.11288 6.92782 4.11288 7.57626V23.7197C4.11288 23.7201 4.11288 23.7201 4.11288 23.7204C4.11358 25.7375 5.75508 27.3776 7.77213 27.3776C9.78813 27.3776 11.4286 25.7368 11.4286 23.719V5.7273C11.4286 5.72237 11.43 5.71851 11.43 5.71358C11.43 5.70444 11.4286 5.69565 11.4286 5.68651V5.40308C11.4286 5.31868 11.4191 5.2364 11.4018 5.15692C11.1219 2.26673 8.67868 0 5.71464 0C2.75376 0 0.312615 2.26391 0.0291869 5.15165C0.0112528 5.23253 0.000703581 5.31657 0.000703581 5.40308V23.4025C0.000703581 23.405 0 23.4071 0 23.4096C0 27.7749 3.45002 31.3266 7.69055 31.3266C11.9304 31.3266 15.3793 27.7749 15.3793 23.4096V4.78207C15.3793 4.13398 14.8533 3.60791 14.2048 3.60791Z" fill="#AEBBC5"/>
</svg>
