<svg width="108" height="43" viewBox="0 0 108 43" fill="none" xmlns="http://www.w3.org/2000/svg">
<path d="M11.12 16L8.768 9.024L6.464 16H4.64L1.52 6.72C1.36 6.22933 1.17867 5.856 0.976 5.6C0.773333 5.344 0.474667 5.06667 0.08 4.768L0.288 4.512H3.888L4.08 5.056L3.712 5.152C3.456 5.216 3.26933 5.30133 3.152 5.408C3.04533 5.51467 2.992 5.664 2.992 5.856C2.992 6.02667 3.05067 6.288 3.168 6.64L5.776 14.672L8.16 7.232L8 6.72C7.84 6.22933 7.65867 5.856 7.456 5.6C7.25333 5.344 6.95467 5.06667 6.56 4.768L6.768 4.512H10.368L10.56 5.056L10.192 5.152C9.936 5.216 9.74933 5.30133 9.632 5.408C9.52533 5.51467 9.472 5.664 9.472 5.856C9.472 6.02667 9.53067 6.288 9.648 6.64L12.256 14.672L14.496 7.712C14.6987 7.072 14.8 6.576 14.8 6.224C14.7787 5.63733 14.5387 5.28 14.08 5.152L13.712 5.056L13.904 4.512H16.944L17.152 4.768L16.912 5.056C16.5173 5.52533 16.224 6.05867 16.032 6.656L12.944 16H11.12ZM23.443 14.8C23.0483 15.2587 22.579 15.6107 22.035 15.856C21.491 16.1013 20.9043 16.224 20.275 16.224C19.539 16.224 18.8937 16.0533 18.339 15.712C17.7843 15.3707 17.3523 14.8907 17.043 14.272C16.7443 13.6533 16.595 12.9387 16.595 12.128C16.595 11.2747 16.7657 10.528 17.107 9.888C17.4483 9.23733 17.9283 8.736 18.547 8.384C19.1763 8.02133 19.907 7.84 20.739 7.84C21.3257 7.84 21.8217 7.952 22.227 8.176C22.643 8.38933 22.9523 8.67733 23.155 9.04C23.3577 9.392 23.459 9.776 23.459 10.192C23.459 10.64 23.3363 11.072 23.091 11.488C22.8563 11.904 22.5097 12.2453 22.051 12.512C21.5923 12.768 21.043 12.896 20.403 12.896C20.0617 12.896 19.683 12.832 19.267 12.704C18.851 12.576 18.643 12.3893 18.643 12.144C18.643 12.0587 18.6643 11.9787 18.707 11.904C18.7603 11.8293 18.819 11.792 18.883 11.792C18.915 11.792 19.0217 11.8293 19.203 11.904C19.3843 11.968 19.619 12 19.907 12C20.547 12 21.043 11.8187 21.395 11.456C21.7577 11.0933 21.939 10.6667 21.939 10.176C21.939 9.76 21.8057 9.40267 21.539 9.104C21.2723 8.79467 20.899 8.64 20.419 8.64C19.7363 8.64 19.203 8.944 18.819 9.552C18.435 10.1493 18.243 11.008 18.243 12.128C18.243 13.0773 18.4457 13.824 18.851 14.368C19.2563 14.9013 19.843 15.168 20.611 15.168C21.5497 15.168 22.3283 14.864 22.947 14.256C22.9897 14.2133 23.0377 14.192 23.091 14.192C23.1763 14.192 23.267 14.2453 23.363 14.352C23.459 14.448 23.507 14.5493 23.507 14.656C23.507 14.7093 23.4857 14.7573 23.443 14.8ZM29.1598 8.736C28.8718 8.736 28.6371 8.77333 28.4557 8.848C28.2744 8.912 28.1678 8.944 28.1358 8.944C28.0718 8.944 28.0131 8.90667 27.9598 8.832C27.9171 8.75733 27.8958 8.67733 27.8958 8.592C27.8958 8.464 27.9438 8.368 28.0398 8.304C28.5304 7.99467 29.0691 7.84 29.6558 7.84C30.3171 7.84 30.9038 8.00533 31.4158 8.336C31.9384 8.66667 32.3438 9.12533 32.6318 9.712C32.9198 10.2987 33.0638 10.9653 33.0638 11.712C33.0638 12.5653 32.8824 13.3387 32.5198 14.032C32.1571 14.7147 31.6611 15.2533 31.0318 15.648C30.4024 16.032 29.6931 16.224 28.9038 16.224C28.2851 16.224 27.7091 16.1333 27.1758 15.952C26.6424 15.7707 26.2211 15.5253 25.9118 15.216V5.216C25.9118 5.088 25.8851 4.99733 25.8318 4.944C25.7891 4.89067 25.7091 4.864 25.5918 4.864H24.8878L24.7438 4.448C25.0531 4.17067 25.4051 3.94133 25.7998 3.76C26.1944 3.57867 26.5464 3.488 26.8558 3.488C27.0051 3.488 27.1278 3.536 27.2238 3.632C27.3198 3.728 27.3678 3.85067 27.3678 4V14.816C27.6238 14.9973 27.8798 15.1307 28.1358 15.216C28.4024 15.2907 28.7064 15.328 29.0477 15.328C29.7624 15.328 30.3278 15.0347 30.7438 14.448C31.1598 13.8507 31.3678 13.0453 31.3678 12.032C31.3678 11.392 31.2718 10.8213 31.0798 10.32C30.8984 9.81867 30.6424 9.42933 30.3118 9.152C29.9811 8.87467 29.5971 8.736 29.1598 8.736ZM35.5253 8.048C35.5253 6.62933 35.7759 5.51467 36.2773 4.704C36.7786 3.89333 37.5199 3.488 38.5013 3.488C39.1946 3.488 39.7653 3.65333 40.2133 3.984C40.6613 4.31467 40.8853 4.74133 40.8853 5.264C40.8853 5.72267 40.7359 6.10133 40.4373 6.4C40.1493 6.688 39.7759 6.832 39.3173 6.832C39.1146 6.832 39.0133 6.77333 39.0133 6.656C39.0133 6.624 39.0506 6.54933 39.1253 6.432C39.1999 6.31467 39.2639 6.17067 39.3173 6C39.3706 5.82933 39.3973 5.61067 39.3973 5.344C39.3973 5.00267 39.3013 4.73067 39.1093 4.528C38.9173 4.31467 38.6559 4.208 38.3253 4.208C37.8559 4.208 37.5093 4.44267 37.2853 4.912C37.0719 5.37067 36.9653 6.01067 36.9653 6.832V8.048H39.2053C39.2053 8.272 39.1733 8.47467 39.1093 8.656C39.0453 8.83733 38.9546 8.97067 38.8373 9.056H36.9653V16.208C36.9653 17.3173 36.7199 18.192 36.2293 18.832C35.7493 19.4827 35.0346 19.808 34.0853 19.808C33.5093 19.808 33.0346 19.6587 32.6612 19.36C32.2879 19.072 32.1012 18.6773 32.1012 18.176C32.1012 17.7707 32.2506 17.4293 32.5492 17.152C32.8479 16.8747 33.2212 16.736 33.6692 16.736C33.8719 16.736 33.9733 16.7947 33.9733 16.912C33.9733 16.944 33.9306 17.0133 33.8453 17.12C33.7599 17.2373 33.6852 17.3653 33.6212 17.504C33.5572 17.6533 33.5252 17.84 33.5252 18.064C33.5252 18.3947 33.6106 18.6507 33.7812 18.832C33.9413 19.024 34.1493 19.12 34.4053 19.12C34.7253 19.12 34.9919 18.976 35.2053 18.688C35.4186 18.4107 35.5253 17.9947 35.5253 17.44V9.056H34.1173C34.1173 8.768 34.1386 8.58133 34.1813 8.496C34.2239 8.41067 34.3306 8.34667 34.5013 8.304L35.5253 8.048ZM42.133 14.592C42.133 14.9547 42.293 15.136 42.613 15.136C42.8797 15.136 43.1463 15.024 43.413 14.8L43.717 15.216C43.4397 15.5253 43.141 15.7707 42.821 15.952C42.501 16.1333 42.2023 16.224 41.925 16.224C41.4877 16.224 41.173 16.0907 40.981 15.824C40.789 15.5573 40.693 15.1253 40.693 14.528V5.216C40.693 5.088 40.6663 4.99733 40.613 4.944C40.5703 4.89067 40.4903 4.864 40.373 4.864H39.669L39.525 4.448C39.8343 4.17067 40.1863 3.94133 40.581 3.76C40.9757 3.57867 41.3277 3.488 41.637 3.488C41.7863 3.488 41.909 3.536 42.005 3.632C42.101 3.728 42.149 3.85067 42.149 4L42.133 14.592ZM44.6731 12.032C44.6731 11.1787 44.8278 10.4373 45.1371 9.808C45.4571 9.17867 45.9105 8.69333 46.4971 8.352C47.0945 8.01067 47.7878 7.84 48.5771 7.84C49.3665 7.84 50.0545 8.01067 50.6411 8.352C51.2278 8.69333 51.6811 9.17867 52.0011 9.808C52.3211 10.4373 52.4811 11.1787 52.4811 12.032C52.4811 12.8747 52.3211 13.616 52.0011 14.256C51.6811 14.8853 51.2278 15.3707 50.6411 15.712C50.0545 16.0533 49.3665 16.224 48.5771 16.224C47.7878 16.224 47.0945 16.0533 46.4971 15.712C45.9105 15.3707 45.4571 14.8853 45.1371 14.256C44.8278 13.616 44.6731 12.8747 44.6731 12.032ZM50.8011 12.08C50.8011 11.5787 50.7318 11.0667 50.5931 10.544C50.4545 10.0213 50.2198 9.57867 49.8891 9.216C49.5691 8.85333 49.1478 8.672 48.6251 8.672C48.1771 8.672 47.7771 8.816 47.4251 9.104C47.0838 9.38133 46.8171 9.776 46.6251 10.288C46.4331 10.8 46.3371 11.3867 46.3371 12.048C46.3371 13.0613 46.5345 13.8667 46.9291 14.464C47.3238 15.0613 47.8571 15.36 48.5291 15.36C48.9665 15.36 49.3558 15.2267 49.6971 14.96C50.0491 14.6827 50.3211 14.2987 50.5131 13.808C50.7051 13.3067 50.8011 12.7307 50.8011 12.08ZM57.6671 15.184C58.0085 15.184 58.3125 15.0027 58.5791 14.64C58.8458 14.2667 59.0485 13.7813 59.1871 13.184C59.3365 12.576 59.4111 11.9413 59.4111 11.28C59.4111 10.768 59.3525 10.272 59.2351 9.792C59.1178 9.312 58.9418 8.88533 58.7071 8.512L58.5471 8.256L58.7391 8.048L60.6111 7.84C60.6645 8.50133 60.6911 9.06667 60.6911 9.536C60.6911 10.0267 60.6645 10.5493 60.6111 11.104L60.9471 13.344C61.0431 14.0053 61.1871 14.48 61.3791 14.768C61.5711 15.0453 61.8538 15.184 62.2271 15.184C62.5685 15.184 62.8725 15.0027 63.1391 14.64C63.4058 14.2667 63.6085 13.7813 63.7471 13.184C63.8965 12.576 63.9711 11.9413 63.9711 11.28C63.9711 10.768 63.9125 10.272 63.7951 9.792C63.6778 9.312 63.5018 8.88533 63.2671 8.512L63.1071 8.256L63.2991 8.048L65.1711 7.84C65.2245 8.50133 65.2511 9.06667 65.2511 9.536C65.2511 10.9547 65.1071 12.1707 64.8191 13.184C64.5311 14.1867 64.1471 14.944 63.6671 15.456C63.1871 15.968 62.6698 16.224 62.1151 16.224C61.4965 16.224 61.0111 16.0747 60.6591 15.776C60.3178 15.4667 60.0511 14.944 59.8591 14.208C59.5711 14.8693 59.2191 15.3707 58.8031 15.712C58.3978 16.0533 57.9605 16.224 57.4911 16.224C56.9365 16.224 56.4885 16.1227 56.1471 15.92C55.8165 15.7067 55.5498 15.3707 55.3471 14.912C55.1445 14.4427 54.9845 13.792 54.8671 12.96L54.3711 9.568C54.3498 9.42933 54.3178 9.33867 54.2751 9.296C54.2325 9.24267 54.1578 9.216 54.0511 9.216H53.3471L53.2031 8.8C53.4805 8.52267 53.8111 8.29333 54.1951 8.112C54.5791 7.93067 54.9205 7.84 55.2191 7.84C55.5071 7.84 55.6778 8.01067 55.7311 8.352L56.4511 13.344C56.5471 14.0053 56.6858 14.48 56.8671 14.768C57.0485 15.0453 57.3151 15.184 57.6671 15.184Z" fill="black"/>
<path d="M23.1854 31.7956C23.1854 32.2343 23.2181 32.5843 23.2834 32.8456C23.3487 33.107 23.4654 33.359 23.6334 33.6016L23.8014 33.8256L23.6334 34.0356H21.1834L21.0294 33.6016L21.3234 33.5316C21.5567 33.4756 21.7107 33.3776 21.7854 33.2376C21.8694 33.0883 21.9114 32.8363 21.9114 32.4816V28.5476C21.9114 28.4356 21.8881 28.3563 21.8414 28.3096C21.8041 28.263 21.7341 28.2396 21.6314 28.2396H21.0154L20.8894 27.8756C21.1601 27.633 21.4681 27.4323 21.8134 27.2736C22.1681 27.115 22.4761 27.0356 22.7374 27.0356C22.8681 27.0356 22.9754 27.0776 23.0594 27.1616C23.1434 27.2456 23.1854 27.353 23.1854 27.4836V28.9816C23.4281 28.3656 23.7827 27.8663 24.2494 27.4836C24.7161 27.0916 25.2061 26.8956 25.7194 26.8956C26.2887 26.8956 26.7181 27.0636 27.0074 27.3996C27.2967 27.7356 27.4647 28.263 27.5114 28.9816C27.7541 28.3656 28.1087 27.8663 28.5754 27.4836C29.0421 27.0916 29.5321 26.8956 30.0454 26.8956C30.6707 26.8956 31.1234 27.0963 31.4034 27.4976C31.6927 27.899 31.8374 28.5383 31.8374 29.4156V32.8036C31.8374 33.121 31.9774 33.2796 32.2574 33.2796C32.4721 33.2796 32.7054 33.1816 32.9574 32.9856L33.2234 33.3496C32.9807 33.6203 32.7194 33.835 32.4394 33.9936C32.1594 34.1523 31.8981 34.2316 31.6554 34.2316C31.2727 34.2316 30.9974 34.115 30.8294 33.8816C30.6614 33.6483 30.5774 33.2703 30.5774 32.7476V29.4156C30.5774 28.4636 30.2321 27.9876 29.5414 27.9876C29.1494 27.9876 28.8041 28.1416 28.5054 28.4496C28.2067 28.7483 27.9687 29.173 27.7914 29.7236C27.6141 30.2743 27.5207 30.909 27.5114 31.6276V31.7956C27.5114 32.281 27.5487 32.6683 27.6234 32.9576C27.7074 33.2376 27.8754 33.527 28.1274 33.8256L27.9594 34.0356H26.2514V29.4156C26.2514 28.4636 25.9061 27.9876 25.2154 27.9876C24.8141 27.9876 24.4594 28.1463 24.1514 28.4636C23.8527 28.781 23.6147 29.229 23.4374 29.8076C23.2694 30.3863 23.1854 31.049 23.1854 31.7956ZM40.7191 32.8036C40.7191 33.093 40.8544 33.2376 41.1251 33.2376C41.3398 33.2376 41.5684 33.1536 41.8111 32.9856L42.0771 33.3496C41.8624 33.611 41.6104 33.8256 41.3211 33.9936C41.0411 34.1523 40.7798 34.2316 40.5371 34.2316C40.1638 34.2316 39.8884 34.1243 39.7111 33.9096C39.5431 33.695 39.4591 33.3543 39.4591 32.8876C39.2444 33.2983 38.9224 33.625 38.4931 33.8676C38.0731 34.1103 37.6064 34.2316 37.0931 34.2316C36.4211 34.2316 35.8938 34.031 35.5111 33.6296C35.1378 33.219 34.9511 32.645 34.9511 31.9076V28.4076C34.9511 28.2023 34.8578 28.0996 34.6711 28.0996H34.0551L33.9291 27.7356C34.1718 27.493 34.4658 27.2923 34.8111 27.1336C35.1658 26.975 35.4878 26.8956 35.7771 26.8956C35.9078 26.8956 36.0151 26.9376 36.0991 27.0216C36.1831 27.1056 36.2251 27.213 36.2251 27.3436V31.5856C36.2251 32.1456 36.3371 32.5703 36.5611 32.8596C36.7944 33.149 37.1304 33.2936 37.5691 33.2936C38.1944 33.2936 38.6798 33.023 39.0251 32.4816C39.3798 31.9403 39.5571 31.1936 39.5571 30.2416C39.5571 29.551 39.5151 29.0143 39.4311 28.6316C39.3564 28.2396 39.2164 27.8663 39.0111 27.5116L38.8431 27.2876L39.0111 27.0776L40.7191 26.8956V32.8036ZM45.7288 33.5456C46.1115 33.5456 46.4241 33.443 46.6668 33.2376C46.9188 33.023 47.0448 32.7476 47.0448 32.4116C47.0448 32.113 46.9141 31.8703 46.6528 31.6836C46.4008 31.497 46.0228 31.2963 45.5188 31.0816C45.0615 30.895 44.6788 30.713 44.3708 30.5356C44.0721 30.3583 43.8155 30.1296 43.6008 29.8496C43.3861 29.5603 43.2788 29.2056 43.2788 28.7856C43.2788 28.2256 43.5168 27.773 43.9928 27.4276C44.4781 27.073 45.0895 26.8956 45.8268 26.8956C46.4895 26.8956 47.0401 27.0263 47.4788 27.2876C47.9175 27.549 48.1368 27.899 48.1368 28.3376C48.1368 28.6923 48.0248 28.9863 47.8008 29.2196C47.5861 29.4436 47.3061 29.5556 46.9608 29.5556C46.7648 29.5556 46.6668 29.495 46.6668 29.3736C46.6668 29.3363 46.6995 29.243 46.7648 29.0936C46.8395 28.935 46.8768 28.767 46.8768 28.5896C46.8768 28.2443 46.7601 27.9876 46.5268 27.8196C46.2935 27.6516 46.0275 27.5676 45.7288 27.5676C45.3461 27.5676 45.0428 27.6656 44.8188 27.8616C44.6041 28.0483 44.4968 28.291 44.4968 28.5896C44.4968 28.935 44.6321 29.215 44.9028 29.4296C45.1828 29.635 45.5935 29.8496 46.1348 30.0736C46.5828 30.2603 46.9561 30.4376 47.2548 30.6056C47.5535 30.7643 47.8055 30.9696 48.0108 31.2216C48.2161 31.4736 48.3188 31.777 48.3188 32.1316C48.3188 32.7663 48.0668 33.275 47.5628 33.6576C47.0588 34.0403 46.3868 34.2316 45.5468 34.2316C44.8375 34.2316 44.2541 34.073 43.7968 33.7556C43.3395 33.4383 43.1108 33.0136 43.1108 32.4816C43.1108 32.1643 43.2181 31.903 43.4328 31.6976C43.6475 31.4923 43.9275 31.3896 44.2728 31.3896C44.4688 31.3896 44.5668 31.4456 44.5668 31.5576C44.5668 31.5856 44.5388 31.6743 44.4828 31.8236C44.4268 31.9636 44.3988 32.1363 44.3988 32.3416C44.3988 32.7336 44.5341 33.0323 44.8048 33.2376C45.0848 33.443 45.3928 33.5456 45.7288 33.5456ZM50.383 24.8236C50.383 24.6463 50.481 24.4503 50.677 24.2356C50.8824 24.0116 51.069 23.8996 51.237 23.8996C51.4144 23.8996 51.6057 24.007 51.811 24.2216C52.0164 24.4363 52.119 24.637 52.119 24.8236C52.119 25.001 52.0164 25.197 51.811 25.4116C51.6057 25.6263 51.4144 25.7336 51.237 25.7336C51.0784 25.7336 50.8964 25.6263 50.691 25.4116C50.4857 25.197 50.383 25.001 50.383 24.8236ZM51.867 32.8036C51.867 33.121 52.007 33.2796 52.287 33.2796C52.5204 33.2796 52.7537 33.1816 52.987 32.9856L53.253 33.3496C53.0104 33.6203 52.749 33.835 52.469 33.9936C52.189 34.1523 51.9277 34.2316 51.685 34.2316C51.3024 34.2316 51.027 34.115 50.859 33.8816C50.691 33.6483 50.607 33.2703 50.607 32.7476V28.4076C50.607 28.2956 50.5837 28.2163 50.537 28.1696C50.4997 28.123 50.4297 28.0996 50.327 28.0996H49.711L49.585 27.7356C49.8557 27.493 50.1637 27.2923 50.509 27.1336C50.8544 26.975 51.1624 26.8956 51.433 26.8956C51.5637 26.8956 51.671 26.9376 51.755 27.0216C51.839 27.1056 51.881 27.213 51.881 27.3436L51.867 32.8036ZM59.5464 32.5936C59.5744 32.5656 59.6164 32.5516 59.6724 32.5516C59.747 32.5516 59.8217 32.5936 59.8964 32.6776C59.9804 32.7616 60.0224 32.8503 60.0224 32.9436C60.0224 32.9996 60.0084 33.0416 59.9804 33.0696C59.6537 33.443 59.271 33.7323 58.8324 33.9376C58.403 34.1336 57.9457 34.2316 57.4604 34.2316C56.8164 34.2316 56.2377 34.0776 55.7244 33.7696C55.211 33.4523 54.8097 33.0183 54.5204 32.4676C54.231 31.9076 54.0864 31.2776 54.0864 30.5776C54.0864 29.8403 54.2264 29.1963 54.5064 28.6456C54.7864 28.0856 55.1784 27.6563 55.6824 27.3576C56.1957 27.0496 56.793 26.8956 57.4744 26.8956C58.193 26.8956 58.781 27.073 59.2384 27.4276C59.705 27.773 59.9384 28.221 59.9384 28.7716C59.9384 29.173 59.8077 29.5043 59.5464 29.7656C59.2944 30.0176 58.9677 30.1436 58.5664 30.1436C58.389 30.1436 58.3004 30.0923 58.3004 29.9896C58.3004 29.9616 58.333 29.8963 58.3984 29.7936C58.4637 29.691 58.5197 29.565 58.5664 29.4156C58.613 29.2663 58.6364 29.075 58.6364 28.8416C58.6364 28.4683 58.515 28.1743 58.2724 27.9596C58.039 27.7356 57.7217 27.6236 57.3204 27.6236C56.7884 27.6236 56.359 27.885 56.0324 28.4076C55.7057 28.9303 55.5424 29.6163 55.5424 30.4656C55.5424 31.3336 55.7337 32.0243 56.1164 32.5376C56.5084 33.0416 57.0357 33.2936 57.6984 33.2936C58.3704 33.2936 58.9864 33.0603 59.5464 32.5936Z" fill="#817979"/>
</svg>
