<svg width="84" height="33" viewBox="0 0 84 33" fill="none" xmlns="http://www.w3.org/2000/svg">
<path d="M11.12 16L8.768 9.024L6.464 16H4.64L1.52 6.72C1.36 6.22933 1.17867 5.856 0.976 5.6C0.773333 5.344 0.474667 5.06667 0.08 4.768L0.288 4.512H3.888L4.08 5.056L3.712 5.152C3.456 5.216 3.26933 5.30133 3.152 5.408C3.04533 5.51467 2.992 5.664 2.992 5.856C2.992 6.02667 3.05067 6.288 3.168 6.64L5.776 14.672L8.16 7.232L8 6.72C7.84 6.22933 7.65867 5.856 7.456 5.6C7.25333 5.344 6.95467 5.06667 6.56 4.768L6.768 4.512H10.368L10.56 5.056L10.192 5.152C9.936 5.216 9.74933 5.30133 9.632 5.408C9.52533 5.51467 9.472 5.664 9.472 5.856C9.472 6.02667 9.53067 6.288 9.648 6.64L12.256 14.672L14.496 7.712C14.6987 7.072 14.8 6.576 14.8 6.224C14.7787 5.63733 14.5387 5.28 14.08 5.152L13.712 5.056L13.904 4.512H16.944L17.152 4.768L16.912 5.056C16.5173 5.52533 16.224 6.05867 16.032 6.656L12.944 16H11.12ZM23.443 14.8C23.0483 15.2587 22.579 15.6107 22.035 15.856C21.491 16.1013 20.9043 16.224 20.275 16.224C19.539 16.224 18.8937 16.0533 18.339 15.712C17.7843 15.3707 17.3523 14.8907 17.043 14.272C16.7443 13.6533 16.595 12.9387 16.595 12.128C16.595 11.2747 16.7657 10.528 17.107 9.888C17.4483 9.23733 17.9283 8.736 18.547 8.384C19.1763 8.02133 19.907 7.84 20.739 7.84C21.3257 7.84 21.8217 7.952 22.227 8.176C22.643 8.38933 22.9523 8.67733 23.155 9.04C23.3577 9.392 23.459 9.776 23.459 10.192C23.459 10.64 23.3363 11.072 23.091 11.488C22.8563 11.904 22.5097 12.2453 22.051 12.512C21.5923 12.768 21.043 12.896 20.403 12.896C20.0617 12.896 19.683 12.832 19.267 12.704C18.851 12.576 18.643 12.3893 18.643 12.144C18.643 12.0587 18.6643 11.9787 18.707 11.904C18.7603 11.8293 18.819 11.792 18.883 11.792C18.915 11.792 19.0217 11.8293 19.203 11.904C19.3843 11.968 19.619 12 19.907 12C20.547 12 21.043 11.8187 21.395 11.456C21.7577 11.0933 21.939 10.6667 21.939 10.176C21.939 9.76 21.8057 9.40267 21.539 9.104C21.2723 8.79467 20.899 8.64 20.419 8.64C19.7363 8.64 19.203 8.944 18.819 9.552C18.435 10.1493 18.243 11.008 18.243 12.128C18.243 13.0773 18.4457 13.824 18.851 14.368C19.2563 14.9013 19.843 15.168 20.611 15.168C21.5497 15.168 22.3283 14.864 22.947 14.256C22.9897 14.2133 23.0377 14.192 23.091 14.192C23.1763 14.192 23.267 14.2453 23.363 14.352C23.459 14.448 23.507 14.5493 23.507 14.656C23.507 14.7093 23.4857 14.7573 23.443 14.8ZM29.1598 8.736C28.8718 8.736 28.6371 8.77333 28.4557 8.848C28.2744 8.912 28.1678 8.944 28.1358 8.944C28.0718 8.944 28.0131 8.90667 27.9598 8.832C27.9171 8.75733 27.8958 8.67733 27.8958 8.592C27.8958 8.464 27.9438 8.368 28.0398 8.304C28.5304 7.99467 29.0691 7.84 29.6558 7.84C30.3171 7.84 30.9038 8.00533 31.4158 8.336C31.9384 8.66667 32.3438 9.12533 32.6318 9.712C32.9198 10.2987 33.0638 10.9653 33.0638 11.712C33.0638 12.5653 32.8824 13.3387 32.5198 14.032C32.1571 14.7147 31.6611 15.2533 31.0318 15.648C30.4024 16.032 29.6931 16.224 28.9038 16.224C28.2851 16.224 27.7091 16.1333 27.1758 15.952C26.6424 15.7707 26.2211 15.5253 25.9118 15.216V5.216C25.9118 5.088 25.8851 4.99733 25.8318 4.944C25.7891 4.89067 25.7091 4.864 25.5918 4.864H24.8878L24.7438 4.448C25.0531 4.17067 25.4051 3.94133 25.7998 3.76C26.1944 3.57867 26.5464 3.488 26.8558 3.488C27.0051 3.488 27.1278 3.536 27.2238 3.632C27.3198 3.728 27.3678 3.85067 27.3678 4V14.816C27.6238 14.9973 27.8798 15.1307 28.1358 15.216C28.4024 15.2907 28.7064 15.328 29.0477 15.328C29.7624 15.328 30.3278 15.0347 30.7438 14.448C31.1598 13.8507 31.3678 13.0453 31.3678 12.032C31.3678 11.392 31.2718 10.8213 31.0798 10.32C30.8984 9.81867 30.6424 9.42933 30.3118 9.152C29.9811 8.87467 29.5971 8.736 29.1598 8.736ZM35.5253 8.048C35.5253 6.62933 35.7759 5.51467 36.2773 4.704C36.7786 3.89333 37.5199 3.488 38.5013 3.488C39.1946 3.488 39.7653 3.65333 40.2133 3.984C40.6613 4.31467 40.8853 4.74133 40.8853 5.264C40.8853 5.72267 40.7359 6.10133 40.4373 6.4C40.1493 6.688 39.7759 6.832 39.3173 6.832C39.1146 6.832 39.0133 6.77333 39.0133 6.656C39.0133 6.624 39.0506 6.54933 39.1253 6.432C39.1999 6.31467 39.2639 6.17067 39.3173 6C39.3706 5.82933 39.3973 5.61067 39.3973 5.344C39.3973 5.00267 39.3013 4.73067 39.1093 4.528C38.9173 4.31467 38.6559 4.208 38.3253 4.208C37.8559 4.208 37.5093 4.44267 37.2853 4.912C37.0719 5.37067 36.9653 6.01067 36.9653 6.832V8.048H39.2053C39.2053 8.272 39.1733 8.47467 39.1093 8.656C39.0453 8.83733 38.9546 8.97067 38.8373 9.056H36.9653V16.208C36.9653 17.3173 36.7199 18.192 36.2293 18.832C35.7493 19.4827 35.0346 19.808 34.0853 19.808C33.5093 19.808 33.0346 19.6587 32.6612 19.36C32.2879 19.072 32.1012 18.6773 32.1012 18.176C32.1012 17.7707 32.2506 17.4293 32.5492 17.152C32.8479 16.8747 33.2212 16.736 33.6692 16.736C33.8719 16.736 33.9733 16.7947 33.9733 16.912C33.9733 16.944 33.9306 17.0133 33.8453 17.12C33.7599 17.2373 33.6852 17.3653 33.6212 17.504C33.5572 17.6533 33.5252 17.84 33.5252 18.064C33.5252 18.3947 33.6106 18.6507 33.7812 18.832C33.9413 19.024 34.1493 19.12 34.4053 19.12C34.7253 19.12 34.9919 18.976 35.2053 18.688C35.4186 18.4107 35.5253 17.9947 35.5253 17.44V9.056H34.1173C34.1173 8.768 34.1386 8.58133 34.1813 8.496C34.2239 8.41067 34.3306 8.34667 34.5013 8.304L35.5253 8.048ZM42.133 14.592C42.133 14.9547 42.293 15.136 42.613 15.136C42.8797 15.136 43.1463 15.024 43.413 14.8L43.717 15.216C43.4397 15.5253 43.141 15.7707 42.821 15.952C42.501 16.1333 42.2023 16.224 41.925 16.224C41.4877 16.224 41.173 16.0907 40.981 15.824C40.789 15.5573 40.693 15.1253 40.693 14.528V5.216C40.693 5.088 40.6663 4.99733 40.613 4.944C40.5703 4.89067 40.4903 4.864 40.373 4.864H39.669L39.525 4.448C39.8343 4.17067 40.1863 3.94133 40.581 3.76C40.9757 3.57867 41.3277 3.488 41.637 3.488C41.7863 3.488 41.909 3.536 42.005 3.632C42.101 3.728 42.149 3.85067 42.149 4L42.133 14.592ZM44.6731 12.032C44.6731 11.1787 44.8278 10.4373 45.1371 9.808C45.4571 9.17867 45.9105 8.69333 46.4971 8.352C47.0945 8.01067 47.7878 7.84 48.5771 7.84C49.3665 7.84 50.0545 8.01067 50.6411 8.352C51.2278 8.69333 51.6811 9.17867 52.0011 9.808C52.3211 10.4373 52.4811 11.1787 52.4811 12.032C52.4811 12.8747 52.3211 13.616 52.0011 14.256C51.6811 14.8853 51.2278 15.3707 50.6411 15.712C50.0545 16.0533 49.3665 16.224 48.5771 16.224C47.7878 16.224 47.0945 16.0533 46.4971 15.712C45.9105 15.3707 45.4571 14.8853 45.1371 14.256C44.8278 13.616 44.6731 12.8747 44.6731 12.032ZM50.8011 12.08C50.8011 11.5787 50.7318 11.0667 50.5931 10.544C50.4545 10.0213 50.2198 9.57867 49.8891 9.216C49.5691 8.85333 49.1478 8.672 48.6251 8.672C48.1771 8.672 47.7771 8.816 47.4251 9.104C47.0838 9.38133 46.8171 9.776 46.6251 10.288C46.4331 10.8 46.3371 11.3867 46.3371 12.048C46.3371 13.0613 46.5345 13.8667 46.9291 14.464C47.3238 15.0613 47.8571 15.36 48.5291 15.36C48.9665 15.36 49.3558 15.2267 49.6971 14.96C50.0491 14.6827 50.3211 14.2987 50.5131 13.808C50.7051 13.3067 50.8011 12.7307 50.8011 12.08ZM57.6671 15.184C58.0085 15.184 58.3125 15.0027 58.5791 14.64C58.8458 14.2667 59.0485 13.7813 59.1871 13.184C59.3365 12.576 59.4111 11.9413 59.4111 11.28C59.4111 10.768 59.3525 10.272 59.2351 9.792C59.1178 9.312 58.9418 8.88533 58.7071 8.512L58.5471 8.256L58.7391 8.048L60.6111 7.84C60.6645 8.50133 60.6911 9.06667 60.6911 9.536C60.6911 10.0267 60.6645 10.5493 60.6111 11.104L60.9471 13.344C61.0431 14.0053 61.1871 14.48 61.3791 14.768C61.5711 15.0453 61.8538 15.184 62.2271 15.184C62.5685 15.184 62.8725 15.0027 63.1391 14.64C63.4058 14.2667 63.6085 13.7813 63.7471 13.184C63.8965 12.576 63.9711 11.9413 63.9711 11.28C63.9711 10.768 63.9125 10.272 63.7951 9.792C63.6778 9.312 63.5018 8.88533 63.2671 8.512L63.1071 8.256L63.2991 8.048L65.1711 7.84C65.2245 8.50133 65.2511 9.06667 65.2511 9.536C65.2511 10.9547 65.1071 12.1707 64.8191 13.184C64.5311 14.1867 64.1471 14.944 63.6671 15.456C63.1871 15.968 62.6698 16.224 62.1151 16.224C61.4965 16.224 61.0111 16.0747 60.6591 15.776C60.3178 15.4667 60.0511 14.944 59.8591 14.208C59.5711 14.8693 59.2191 15.3707 58.8031 15.712C58.3978 16.0533 57.9605 16.224 57.4911 16.224C56.9365 16.224 56.4885 16.1227 56.1471 15.92C55.8165 15.7067 55.5498 15.3707 55.3471 14.912C55.1445 14.4427 54.9845 13.792 54.8671 12.96L54.3711 9.568C54.3498 9.42933 54.3178 9.33867 54.2751 9.296C54.2325 9.24267 54.1578 9.216 54.0511 9.216H53.3471L53.2031 8.8C53.4805 8.52267 53.8111 8.29333 54.1951 8.112C54.5791 7.93067 54.9205 7.84 55.2191 7.84C55.5071 7.84 55.6778 8.01067 55.7311 8.352L56.4511 13.344C56.5471 14.0053 56.6858 14.48 56.8671 14.768C57.0485 15.0453 57.3151 15.184 57.6671 15.184Z" fill="black"/>
<path d="M18.6678 27.3433C18.6678 27.782 18.7004 28.132 18.7658 28.3933C18.8311 28.6546 18.9478 28.9066 19.1158 29.1493L19.2838 29.3733L19.1158 29.5833H16.6658L16.5118 29.1493L16.8058 29.0793C17.0391 29.0233 17.1931 28.9253 17.2678 28.7853C17.3518 28.636 17.3938 28.384 17.3938 28.0293V24.0953C17.3938 23.9833 17.3704 23.904 17.3238 23.8573C17.2864 23.8106 17.2164 23.7873 17.1138 23.7873H16.4978L16.3718 23.4233C16.6424 23.1806 16.9504 22.98 17.2958 22.8213C17.6504 22.6626 17.9584 22.5833 18.2198 22.5833C18.3504 22.5833 18.4578 22.6253 18.5418 22.7093C18.6258 22.7933 18.6678 22.9006 18.6678 23.0313V24.5293C18.9104 23.9133 19.2651 23.414 19.7318 23.0313C20.1984 22.6393 20.6884 22.4433 21.2018 22.4433C21.7711 22.4433 22.2004 22.6113 22.4898 22.9473C22.7791 23.2833 22.9471 23.8106 22.9938 24.5293C23.2364 23.9133 23.5911 23.414 24.0578 23.0313C24.5244 22.6393 25.0144 22.4433 25.5278 22.4433C26.1531 22.4433 26.6058 22.644 26.8858 23.0453C27.1751 23.4466 27.3198 24.086 27.3198 24.9633V28.3513C27.3198 28.6686 27.4598 28.8273 27.7398 28.8273C27.9544 28.8273 28.1878 28.7293 28.4398 28.5333L28.7058 28.8973C28.4631 29.168 28.2018 29.3826 27.9218 29.5413C27.6418 29.7 27.3804 29.7793 27.1378 29.7793C26.7551 29.7793 26.4798 29.6626 26.3118 29.4293C26.1438 29.196 26.0598 28.818 26.0598 28.2953V24.9633C26.0598 24.0113 25.7144 23.5353 25.0238 23.5353C24.6318 23.5353 24.2864 23.6893 23.9878 23.9973C23.6891 24.296 23.4511 24.7206 23.2738 25.2713C23.0964 25.822 23.0031 26.4566 22.9938 27.1753V27.3433C22.9938 27.8286 23.0311 28.216 23.1058 28.5053C23.1898 28.7853 23.3578 29.0746 23.6098 29.3733L23.4418 29.5833H21.7338V24.9633C21.7338 24.0113 21.3884 23.5353 20.6978 23.5353C20.2964 23.5353 19.9418 23.694 19.6338 24.0113C19.3351 24.3286 19.0971 24.7766 18.9198 25.3553C18.7518 25.934 18.6678 26.5966 18.6678 27.3433ZM36.2015 28.3513C36.2015 28.6406 36.3368 28.7853 36.6075 28.7853C36.8221 28.7853 37.0508 28.7013 37.2935 28.5333L37.5595 28.8973C37.3448 29.1586 37.0928 29.3733 36.8035 29.5413C36.5235 29.7 36.2621 29.7793 36.0195 29.7793C35.6461 29.7793 35.3708 29.672 35.1935 29.4573C35.0255 29.2426 34.9415 28.902 34.9415 28.4353C34.7268 28.846 34.4048 29.1726 33.9755 29.4153C33.5555 29.658 33.0888 29.7793 32.5755 29.7793C31.9035 29.7793 31.3761 29.5786 30.9935 29.1773C30.6201 28.7666 30.4335 28.1926 30.4335 27.4553V23.9553C30.4335 23.75 30.3401 23.6473 30.1535 23.6473H29.5375L29.4115 23.2833C29.6541 23.0406 29.9481 22.84 30.2935 22.6813C30.6481 22.5226 30.9701 22.4433 31.2595 22.4433C31.3901 22.4433 31.4975 22.4853 31.5815 22.5693C31.6655 22.6533 31.7075 22.7606 31.7075 22.8913V27.1333C31.7075 27.6933 31.8195 28.118 32.0435 28.4073C32.2768 28.6966 32.6128 28.8413 33.0515 28.8413C33.6768 28.8413 34.1621 28.5706 34.5075 28.0293C34.8621 27.488 35.0395 26.7413 35.0395 25.7893C35.0395 25.0986 34.9975 24.562 34.9135 24.1793C34.8388 23.7873 34.6988 23.414 34.4935 23.0593L34.3255 22.8353L34.4935 22.6253L36.2015 22.4433V28.3513ZM41.2112 29.0933C41.5938 29.0933 41.9065 28.9906 42.1492 28.7853C42.4012 28.5706 42.5272 28.2953 42.5272 27.9593C42.5272 27.6606 42.3965 27.418 42.1352 27.2313C41.8832 27.0446 41.5052 26.844 41.0012 26.6293C40.5438 26.4426 40.1612 26.2606 39.8532 26.0833C39.5545 25.906 39.2978 25.6773 39.0832 25.3973C38.8685 25.108 38.7612 24.7533 38.7612 24.3333C38.7612 23.7733 38.9992 23.3206 39.4752 22.9753C39.9605 22.6206 40.5718 22.4433 41.3092 22.4433C41.9718 22.4433 42.5225 22.574 42.9612 22.8353C43.3998 23.0966 43.6192 23.4466 43.6192 23.8853C43.6192 24.24 43.5072 24.534 43.2832 24.7673C43.0685 24.9913 42.7885 25.1033 42.4432 25.1033C42.2472 25.1033 42.1492 25.0426 42.1492 24.9213C42.1492 24.884 42.1818 24.7906 42.2472 24.6413C42.3218 24.4826 42.3592 24.3146 42.3592 24.1373C42.3592 23.792 42.2425 23.5353 42.0092 23.3673C41.7758 23.1993 41.5098 23.1153 41.2112 23.1153C40.8285 23.1153 40.5252 23.2133 40.3012 23.4093C40.0865 23.596 39.9792 23.8386 39.9792 24.1373C39.9792 24.4826 40.1145 24.7626 40.3852 24.9773C40.6652 25.1826 41.0758 25.3973 41.6172 25.6213C42.0652 25.808 42.4385 25.9853 42.7372 26.1533C43.0358 26.312 43.2878 26.5173 43.4932 26.7693C43.6985 27.0213 43.8012 27.3246 43.8012 27.6793C43.8012 28.314 43.5492 28.8226 43.0452 29.2053C42.5412 29.588 41.8692 29.7793 41.0292 29.7793C40.3198 29.7793 39.7365 29.6206 39.2792 29.3033C38.8218 28.986 38.5932 28.5613 38.5932 28.0293C38.5932 27.712 38.7005 27.4506 38.9152 27.2453C39.1298 27.04 39.4098 26.9373 39.7552 26.9373C39.9512 26.9373 40.0492 26.9933 40.0492 27.1053C40.0492 27.1333 40.0212 27.222 39.9652 27.3713C39.9092 27.5113 39.8812 27.684 39.8812 27.8893C39.8812 28.2813 40.0165 28.58 40.2872 28.7853C40.5672 28.9906 40.8752 29.0933 41.2112 29.0933ZM45.8654 20.3713C45.8654 20.194 45.9634 19.998 46.1594 19.7833C46.3647 19.5593 46.5514 19.4473 46.7194 19.4473C46.8967 19.4473 47.0881 19.5546 47.2934 19.7693C47.4987 19.984 47.6014 20.1846 47.6014 20.3713C47.6014 20.5486 47.4987 20.7446 47.2934 20.9593C47.0881 21.174 46.8967 21.2813 46.7194 21.2813C46.5607 21.2813 46.3787 21.174 46.1734 20.9593C45.9681 20.7446 45.8654 20.5486 45.8654 20.3713ZM47.3494 28.3513C47.3494 28.6686 47.4894 28.8273 47.7694 28.8273C48.0027 28.8273 48.2361 28.7293 48.4694 28.5333L48.7354 28.8973C48.4927 29.168 48.2314 29.3826 47.9514 29.5413C47.6714 29.7 47.4101 29.7793 47.1674 29.7793C46.7847 29.7793 46.5094 29.6626 46.3414 29.4293C46.1734 29.196 46.0894 28.818 46.0894 28.2953V23.9553C46.0894 23.8433 46.0661 23.764 46.0194 23.7173C45.9821 23.6706 45.9121 23.6473 45.8094 23.6473H45.1934L45.0674 23.2833C45.3381 23.0406 45.6461 22.84 45.9914 22.6813C46.3367 22.5226 46.6447 22.4433 46.9154 22.4433C47.0461 22.4433 47.1534 22.4853 47.2374 22.5693C47.3214 22.6533 47.3634 22.7606 47.3634 22.8913L47.3494 28.3513ZM55.0287 28.1413C55.0567 28.1133 55.0987 28.0993 55.1547 28.0993C55.2294 28.0993 55.3041 28.1413 55.3787 28.2253C55.4627 28.3093 55.5047 28.398 55.5047 28.4913C55.5047 28.5473 55.4907 28.5893 55.4627 28.6173C55.1361 28.9906 54.7534 29.28 54.3147 29.4853C53.8854 29.6813 53.4281 29.7793 52.9427 29.7793C52.2987 29.7793 51.7201 29.6253 51.2067 29.3173C50.6934 29 50.2921 28.566 50.0027 28.0153C49.7134 27.4553 49.5687 26.8253 49.5687 26.1253C49.5687 25.388 49.7087 24.744 49.9887 24.1933C50.2687 23.6333 50.6607 23.204 51.1647 22.9053C51.6781 22.5973 52.2754 22.4433 52.9567 22.4433C53.6754 22.4433 54.2634 22.6206 54.7207 22.9753C55.1874 23.3206 55.4207 23.7686 55.4207 24.3193C55.4207 24.7206 55.2901 25.052 55.0287 25.3133C54.7767 25.5653 54.4501 25.6913 54.0487 25.6913C53.8714 25.6913 53.7827 25.64 53.7827 25.5373C53.7827 25.5093 53.8154 25.444 53.8807 25.3413C53.9461 25.2386 54.0021 25.1126 54.0487 24.9633C54.0954 24.814 54.1187 24.6226 54.1187 24.3893C54.1187 24.016 53.9974 23.722 53.7547 23.5073C53.5214 23.2833 53.2041 23.1713 52.8027 23.1713C52.2707 23.1713 51.8414 23.4326 51.5147 23.9553C51.1881 24.478 51.0247 25.164 51.0247 26.0133C51.0247 26.8813 51.2161 27.572 51.5987 28.0853C51.9907 28.5893 52.5181 28.8413 53.1807 28.8413C53.8527 28.8413 54.4687 28.608 55.0287 28.1413Z" fill="#817979"/>
</svg>
