<svg width="116" height="50" viewBox="0 0 116 50" fill="none" xmlns="http://www.w3.org/2000/svg">
<path d="M11.12 16L8.768 9.024L6.464 16H4.64L1.52 6.72C1.36 6.22933 1.17867 5.856 0.976 5.6C0.773333 5.344 0.474667 5.06667 0.08 4.768L0.288 4.512H3.888L4.08 5.056L3.712 5.152C3.456 5.216 3.26933 5.30133 3.152 5.408C3.04533 5.51467 2.992 5.664 2.992 5.856C2.992 6.02667 3.05067 6.288 3.168 6.64L5.776 14.672L8.16 7.232L8 6.72C7.84 6.22933 7.65867 5.856 7.456 5.6C7.25333 5.344 6.95467 5.06667 6.56 4.768L6.768 4.512H10.368L10.56 5.056L10.192 5.152C9.936 5.216 9.74933 5.30133 9.632 5.408C9.52533 5.51467 9.472 5.664 9.472 5.856C9.472 6.02667 9.53067 6.288 9.648 6.64L12.256 14.672L14.496 7.712C14.6987 7.072 14.8 6.576 14.8 6.224C14.7787 5.63733 14.5387 5.28 14.08 5.152L13.712 5.056L13.904 4.512H16.944L17.152 4.768L16.912 5.056C16.5173 5.52533 16.224 6.05867 16.032 6.656L12.944 16H11.12ZM23.443 14.8C23.0483 15.2587 22.579 15.6107 22.035 15.856C21.491 16.1013 20.9043 16.224 20.275 16.224C19.539 16.224 18.8937 16.0533 18.339 15.712C17.7843 15.3707 17.3523 14.8907 17.043 14.272C16.7443 13.6533 16.595 12.9387 16.595 12.128C16.595 11.2747 16.7657 10.528 17.107 9.888C17.4483 9.23733 17.9283 8.736 18.547 8.384C19.1763 8.02133 19.907 7.84 20.739 7.84C21.3257 7.84 21.8217 7.952 22.227 8.176C22.643 8.38933 22.9523 8.67733 23.155 9.04C23.3577 9.392 23.459 9.776 23.459 10.192C23.459 10.64 23.3363 11.072 23.091 11.488C22.8563 11.904 22.5097 12.2453 22.051 12.512C21.5923 12.768 21.043 12.896 20.403 12.896C20.0617 12.896 19.683 12.832 19.267 12.704C18.851 12.576 18.643 12.3893 18.643 12.144C18.643 12.0587 18.6643 11.9787 18.707 11.904C18.7603 11.8293 18.819 11.792 18.883 11.792C18.915 11.792 19.0217 11.8293 19.203 11.904C19.3843 11.968 19.619 12 19.907 12C20.547 12 21.043 11.8187 21.395 11.456C21.7577 11.0933 21.939 10.6667 21.939 10.176C21.939 9.76 21.8057 9.40267 21.539 9.104C21.2723 8.79467 20.899 8.64 20.419 8.64C19.7363 8.64 19.203 8.944 18.819 9.552C18.435 10.1493 18.243 11.008 18.243 12.128C18.243 13.0773 18.4457 13.824 18.851 14.368C19.2563 14.9013 19.843 15.168 20.611 15.168C21.5497 15.168 22.3283 14.864 22.947 14.256C22.9897 14.2133 23.0377 14.192 23.091 14.192C23.1763 14.192 23.267 14.2453 23.363 14.352C23.459 14.448 23.507 14.5493 23.507 14.656C23.507 14.7093 23.4857 14.7573 23.443 14.8ZM29.1598 8.736C28.8718 8.736 28.6371 8.77333 28.4557 8.848C28.2744 8.912 28.1678 8.944 28.1358 8.944C28.0718 8.944 28.0131 8.90667 27.9598 8.832C27.9171 8.75733 27.8958 8.67733 27.8958 8.592C27.8958 8.464 27.9438 8.368 28.0398 8.304C28.5304 7.99467 29.0691 7.84 29.6558 7.84C30.3171 7.84 30.9038 8.00533 31.4158 8.336C31.9384 8.66667 32.3438 9.12533 32.6318 9.712C32.9198 10.2987 33.0638 10.9653 33.0638 11.712C33.0638 12.5653 32.8824 13.3387 32.5198 14.032C32.1571 14.7147 31.6611 15.2533 31.0318 15.648C30.4024 16.032 29.6931 16.224 28.9038 16.224C28.2851 16.224 27.7091 16.1333 27.1758 15.952C26.6424 15.7707 26.2211 15.5253 25.9118 15.216V5.216C25.9118 5.088 25.8851 4.99733 25.8318 4.944C25.7891 4.89067 25.7091 4.864 25.5918 4.864H24.8878L24.7438 4.448C25.0531 4.17067 25.4051 3.94133 25.7998 3.76C26.1944 3.57867 26.5464 3.488 26.8558 3.488C27.0051 3.488 27.1278 3.536 27.2238 3.632C27.3198 3.728 27.3678 3.85067 27.3678 4V14.816C27.6238 14.9973 27.8798 15.1307 28.1358 15.216C28.4024 15.2907 28.7064 15.328 29.0477 15.328C29.7624 15.328 30.3278 15.0347 30.7438 14.448C31.1598 13.8507 31.3678 13.0453 31.3678 12.032C31.3678 11.392 31.2718 10.8213 31.0798 10.32C30.8984 9.81867 30.6424 9.42933 30.3118 9.152C29.9811 8.87467 29.5971 8.736 29.1598 8.736ZM35.5253 8.048C35.5253 6.62933 35.7759 5.51467 36.2773 4.704C36.7786 3.89333 37.5199 3.488 38.5013 3.488C39.1946 3.488 39.7653 3.65333 40.2133 3.984C40.6613 4.31467 40.8853 4.74133 40.8853 5.264C40.8853 5.72267 40.7359 6.10133 40.4373 6.4C40.1493 6.688 39.7759 6.832 39.3173 6.832C39.1146 6.832 39.0133 6.77333 39.0133 6.656C39.0133 6.624 39.0506 6.54933 39.1253 6.432C39.1999 6.31467 39.2639 6.17067 39.3173 6C39.3706 5.82933 39.3973 5.61067 39.3973 5.344C39.3973 5.00267 39.3013 4.73067 39.1093 4.528C38.9173 4.31467 38.6559 4.208 38.3253 4.208C37.8559 4.208 37.5093 4.44267 37.2853 4.912C37.0719 5.37067 36.9653 6.01067 36.9653 6.832V8.048H39.2053C39.2053 8.272 39.1733 8.47467 39.1093 8.656C39.0453 8.83733 38.9546 8.97067 38.8373 9.056H36.9653V16.208C36.9653 17.3173 36.7199 18.192 36.2293 18.832C35.7493 19.4827 35.0346 19.808 34.0853 19.808C33.5093 19.808 33.0346 19.6587 32.6612 19.36C32.2879 19.072 32.1012 18.6773 32.1012 18.176C32.1012 17.7707 32.2506 17.4293 32.5492 17.152C32.8479 16.8747 33.2212 16.736 33.6692 16.736C33.8719 16.736 33.9733 16.7947 33.9733 16.912C33.9733 16.944 33.9306 17.0133 33.8453 17.12C33.7599 17.2373 33.6852 17.3653 33.6212 17.504C33.5572 17.6533 33.5252 17.84 33.5252 18.064C33.5252 18.3947 33.6106 18.6507 33.7812 18.832C33.9413 19.024 34.1493 19.12 34.4053 19.12C34.7253 19.12 34.9919 18.976 35.2053 18.688C35.4186 18.4107 35.5253 17.9947 35.5253 17.44V9.056H34.1173C34.1173 8.768 34.1386 8.58133 34.1813 8.496C34.2239 8.41067 34.3306 8.34667 34.5013 8.304L35.5253 8.048ZM42.133 14.592C42.133 14.9547 42.293 15.136 42.613 15.136C42.8797 15.136 43.1463 15.024 43.413 14.8L43.717 15.216C43.4397 15.5253 43.141 15.7707 42.821 15.952C42.501 16.1333 42.2023 16.224 41.925 16.224C41.4877 16.224 41.173 16.0907 40.981 15.824C40.789 15.5573 40.693 15.1253 40.693 14.528V5.216C40.693 5.088 40.6663 4.99733 40.613 4.944C40.5703 4.89067 40.4903 4.864 40.373 4.864H39.669L39.525 4.448C39.8343 4.17067 40.1863 3.94133 40.581 3.76C40.9757 3.57867 41.3277 3.488 41.637 3.488C41.7863 3.488 41.909 3.536 42.005 3.632C42.101 3.728 42.149 3.85067 42.149 4L42.133 14.592ZM44.6731 12.032C44.6731 11.1787 44.8278 10.4373 45.1371 9.808C45.4571 9.17867 45.9105 8.69333 46.4971 8.352C47.0945 8.01067 47.7878 7.84 48.5771 7.84C49.3665 7.84 50.0545 8.01067 50.6411 8.352C51.2278 8.69333 51.6811 9.17867 52.0011 9.808C52.3211 10.4373 52.4811 11.1787 52.4811 12.032C52.4811 12.8747 52.3211 13.616 52.0011 14.256C51.6811 14.8853 51.2278 15.3707 50.6411 15.712C50.0545 16.0533 49.3665 16.224 48.5771 16.224C47.7878 16.224 47.0945 16.0533 46.4971 15.712C45.9105 15.3707 45.4571 14.8853 45.1371 14.256C44.8278 13.616 44.6731 12.8747 44.6731 12.032ZM50.8011 12.08C50.8011 11.5787 50.7318 11.0667 50.5931 10.544C50.4545 10.0213 50.2198 9.57867 49.8891 9.216C49.5691 8.85333 49.1478 8.672 48.6251 8.672C48.1771 8.672 47.7771 8.816 47.4251 9.104C47.0838 9.38133 46.8171 9.776 46.6251 10.288C46.4331 10.8 46.3371 11.3867 46.3371 12.048C46.3371 13.0613 46.5345 13.8667 46.9291 14.464C47.3238 15.0613 47.8571 15.36 48.5291 15.36C48.9665 15.36 49.3558 15.2267 49.6971 14.96C50.0491 14.6827 50.3211 14.2987 50.5131 13.808C50.7051 13.3067 50.8011 12.7307 50.8011 12.08ZM57.6671 15.184C58.0085 15.184 58.3125 15.0027 58.5791 14.64C58.8458 14.2667 59.0485 13.7813 59.1871 13.184C59.3365 12.576 59.4111 11.9413 59.4111 11.28C59.4111 10.768 59.3525 10.272 59.2351 9.792C59.1178 9.312 58.9418 8.88533 58.7071 8.512L58.5471 8.256L58.7391 8.048L60.6111 7.84C60.6645 8.50133 60.6911 9.06667 60.6911 9.536C60.6911 10.0267 60.6645 10.5493 60.6111 11.104L60.9471 13.344C61.0431 14.0053 61.1871 14.48 61.3791 14.768C61.5711 15.0453 61.8538 15.184 62.2271 15.184C62.5685 15.184 62.8725 15.0027 63.1391 14.64C63.4058 14.2667 63.6085 13.7813 63.7471 13.184C63.8965 12.576 63.9711 11.9413 63.9711 11.28C63.9711 10.768 63.9125 10.272 63.7951 9.792C63.6778 9.312 63.5018 8.88533 63.2671 8.512L63.1071 8.256L63.2991 8.048L65.1711 7.84C65.2245 8.50133 65.2511 9.06667 65.2511 9.536C65.2511 10.9547 65.1071 12.1707 64.8191 13.184C64.5311 14.1867 64.1471 14.944 63.6671 15.456C63.1871 15.968 62.6698 16.224 62.1151 16.224C61.4965 16.224 61.0111 16.0747 60.6591 15.776C60.3178 15.4667 60.0511 14.944 59.8591 14.208C59.5711 14.8693 59.2191 15.3707 58.8031 15.712C58.3978 16.0533 57.9605 16.224 57.4911 16.224C56.9365 16.224 56.4885 16.1227 56.1471 15.92C55.8165 15.7067 55.5498 15.3707 55.3471 14.912C55.1445 14.4427 54.9845 13.792 54.8671 12.96L54.3711 9.568C54.3498 9.42933 54.3178 9.33867 54.2751 9.296C54.2325 9.24267 54.1578 9.216 54.0511 9.216H53.3471L53.2031 8.8C53.4805 8.52267 53.8111 8.29333 54.1951 8.112C54.5791 7.93067 54.9205 7.84 55.2191 7.84C55.5071 7.84 55.6778 8.01067 55.7311 8.352L56.4511 13.344C56.5471 14.0053 56.6858 14.48 56.8671 14.768C57.0485 15.0453 57.3151 15.184 57.6671 15.184Z" fill="white"/>
<path d="M24.6913 35.2793C24.6913 35.718 24.7239 36.068 24.7893 36.3293C24.8546 36.5907 24.9713 36.8427 25.1393 37.0853L25.3073 37.3093L25.1393 37.5193H22.6893L22.5353 37.0853L22.8293 37.0153C23.0626 36.9593 23.2166 36.8613 23.2913 36.7213C23.3753 36.572 23.4173 36.32 23.4173 35.9653V32.0313C23.4173 31.9193 23.3939 31.84 23.3473 31.7933C23.3099 31.7467 23.2399 31.7233 23.1373 31.7233H22.5213L22.3953 31.3593C22.6659 31.1167 22.9739 30.916 23.3193 30.7573C23.6739 30.5987 23.9819 30.5193 24.2433 30.5193C24.3739 30.5193 24.4813 30.5613 24.5653 30.6453C24.6493 30.7293 24.6913 30.8367 24.6913 30.9673V32.4653C24.9339 31.8493 25.2886 31.35 25.7553 30.9673C26.2219 30.5753 26.7119 30.3793 27.2253 30.3793C27.7946 30.3793 28.2239 30.5473 28.5133 30.8833C28.8026 31.2193 28.9706 31.7467 29.0173 32.4653C29.2599 31.8493 29.6146 31.35 30.0813 30.9673C30.5479 30.5753 31.0379 30.3793 31.5513 30.3793C32.1766 30.3793 32.6293 30.58 32.9093 30.9813C33.1986 31.3827 33.3433 32.022 33.3433 32.8993V36.2873C33.3433 36.6047 33.4833 36.7633 33.7633 36.7633C33.9779 36.7633 34.2113 36.6653 34.4633 36.4693L34.7293 36.8333C34.4866 37.104 34.2253 37.3187 33.9453 37.4773C33.6653 37.636 33.4039 37.7153 33.1613 37.7153C32.7786 37.7153 32.5033 37.5987 32.3353 37.3653C32.1673 37.132 32.0833 36.754 32.0833 36.2313V32.8993C32.0833 31.9473 31.7379 31.4713 31.0473 31.4713C30.6553 31.4713 30.3099 31.6253 30.0113 31.9333C29.7126 32.232 29.4746 32.6567 29.2973 33.2073C29.1199 33.758 29.0266 34.3927 29.0173 35.1113V35.2793C29.0173 35.7647 29.0546 36.152 29.1293 36.4413C29.2133 36.7213 29.3813 37.0107 29.6333 37.3093L29.4653 37.5193H27.7573V32.8993C27.7573 31.9473 27.4119 31.4713 26.7213 31.4713C26.3199 31.4713 25.9653 31.63 25.6573 31.9473C25.3586 32.2647 25.1206 32.7127 24.9433 33.2913C24.7753 33.87 24.6913 34.5327 24.6913 35.2793ZM42.225 36.2873C42.225 36.5767 42.3603 36.7213 42.631 36.7213C42.8456 36.7213 43.0743 36.6373 43.317 36.4693L43.583 36.8333C43.3683 37.0947 43.1163 37.3093 42.827 37.4773C42.547 37.636 42.2856 37.7153 42.043 37.7153C41.6696 37.7153 41.3943 37.608 41.217 37.3933C41.049 37.1787 40.965 36.838 40.965 36.3713C40.7503 36.782 40.4283 37.1087 39.999 37.3513C39.579 37.594 39.1123 37.7153 38.599 37.7153C37.927 37.7153 37.3996 37.5147 37.017 37.1133C36.6436 36.7027 36.457 36.1287 36.457 35.3913V31.8913C36.457 31.686 36.3636 31.5833 36.177 31.5833H35.561L35.435 31.2193C35.6776 30.9767 35.9716 30.776 36.317 30.6173C36.6716 30.4587 36.9936 30.3793 37.283 30.3793C37.4136 30.3793 37.521 30.4213 37.605 30.5053C37.689 30.5893 37.731 30.6967 37.731 30.8273V35.0693C37.731 35.6293 37.843 36.054 38.067 36.3433C38.3003 36.6327 38.6363 36.7773 39.075 36.7773C39.7003 36.7773 40.1856 36.5067 40.531 35.9653C40.8856 35.424 41.063 34.6773 41.063 33.7253C41.063 33.0347 41.021 32.498 40.937 32.1153C40.8623 31.7233 40.7223 31.35 40.517 30.9953L40.349 30.7713L40.517 30.5613L42.225 30.3793V36.2873ZM47.2347 37.0293C47.6173 37.0293 47.93 36.9267 48.1727 36.7213C48.4247 36.5067 48.5507 36.2313 48.5507 35.8953C48.5507 35.5967 48.42 35.354 48.1587 35.1673C47.9067 34.9807 47.5287 34.78 47.0247 34.5653C46.5673 34.3787 46.1847 34.1967 45.8767 34.0193C45.578 33.842 45.3213 33.6133 45.1067 33.3333C44.892 33.044 44.7847 32.6893 44.7847 32.2693C44.7847 31.7093 45.0227 31.2567 45.4987 30.9113C45.984 30.5567 46.5953 30.3793 47.3327 30.3793C47.9953 30.3793 48.546 30.51 48.9847 30.7713C49.4233 31.0327 49.6427 31.3827 49.6427 31.8213C49.6427 32.176 49.5307 32.47 49.3067 32.7033C49.092 32.9273 48.812 33.0393 48.4667 33.0393C48.2707 33.0393 48.1727 32.9787 48.1727 32.8573C48.1727 32.82 48.2053 32.7267 48.2707 32.5773C48.3453 32.4187 48.3827 32.2507 48.3827 32.0733C48.3827 31.728 48.266 31.4713 48.0327 31.3033C47.7993 31.1353 47.5333 31.0513 47.2347 31.0513C46.852 31.0513 46.5487 31.1493 46.3247 31.3453C46.11 31.532 46.0027 31.7747 46.0027 32.0733C46.0027 32.4187 46.138 32.6987 46.4087 32.9133C46.6887 33.1187 47.0993 33.3333 47.6407 33.5573C48.0887 33.744 48.462 33.9213 48.7607 34.0893C49.0593 34.248 49.3113 34.4533 49.5167 34.7053C49.722 34.9573 49.8247 35.2607 49.8247 35.6153C49.8247 36.25 49.5727 36.7587 49.0687 37.1413C48.5647 37.524 47.8927 37.7153 47.0527 37.7153C46.3433 37.7153 45.76 37.5567 45.3027 37.2393C44.8453 36.922 44.6167 36.4973 44.6167 35.9653C44.6167 35.648 44.724 35.3867 44.9387 35.1813C45.1533 34.976 45.4333 34.8733 45.7787 34.8733C45.9747 34.8733 46.0727 34.9293 46.0727 35.0413C46.0727 35.0693 46.0447 35.158 45.9887 35.3073C45.9327 35.4473 45.9047 35.62 45.9047 35.8253C45.9047 36.2173 46.04 36.516 46.3107 36.7213C46.5907 36.9267 46.8987 37.0293 47.2347 37.0293ZM51.8889 28.3073C51.8889 28.13 51.9869 27.934 52.1829 27.7193C52.3882 27.4953 52.5749 27.3833 52.7429 27.3833C52.9202 27.3833 53.1116 27.4907 53.3169 27.7053C53.5222 27.92 53.6249 28.1207 53.6249 28.3073C53.6249 28.4847 53.5222 28.6807 53.3169 28.8953C53.1116 29.11 52.9202 29.2173 52.7429 29.2173C52.5842 29.2173 52.4022 29.11 52.1969 28.8953C51.9916 28.6807 51.8889 28.4847 51.8889 28.3073ZM53.3729 36.2873C53.3729 36.6047 53.5129 36.7633 53.7929 36.7633C54.0262 36.7633 54.2596 36.6653 54.4929 36.4693L54.7589 36.8333C54.5162 37.104 54.2549 37.3187 53.9749 37.4773C53.6949 37.636 53.4336 37.7153 53.1909 37.7153C52.8082 37.7153 52.5329 37.5987 52.3649 37.3653C52.1969 37.132 52.1129 36.754 52.1129 36.2313V31.8913C52.1129 31.7793 52.0896 31.7 52.0429 31.6533C52.0056 31.6067 51.9356 31.5833 51.8329 31.5833H51.2169L51.0909 31.2193C51.3616 30.9767 51.6696 30.776 52.0149 30.6173C52.3602 30.4587 52.6682 30.3793 52.9389 30.3793C53.0696 30.3793 53.1769 30.4213 53.2609 30.5053C53.3449 30.5893 53.3869 30.6967 53.3869 30.8273L53.3729 36.2873ZM61.0522 36.0773C61.0802 36.0493 61.1222 36.0353 61.1782 36.0353C61.2529 36.0353 61.3276 36.0773 61.4022 36.1613C61.4862 36.2453 61.5282 36.334 61.5282 36.4273C61.5282 36.4833 61.5142 36.5253 61.4862 36.5533C61.1596 36.9267 60.7769 37.216 60.3382 37.4213C59.9089 37.6173 59.4516 37.7153 58.9662 37.7153C58.3222 37.7153 57.7436 37.5613 57.2302 37.2533C56.7169 36.936 56.3156 36.502 56.0262 35.9513C55.7369 35.3913 55.5922 34.7613 55.5922 34.0613C55.5922 33.324 55.7322 32.68 56.0122 32.1293C56.2922 31.5693 56.6842 31.14 57.1882 30.8413C57.7016 30.5333 58.2989 30.3793 58.9802 30.3793C59.6989 30.3793 60.2869 30.5567 60.7442 30.9113C61.2109 31.2567 61.4442 31.7047 61.4442 32.2553C61.4442 32.6567 61.3136 32.988 61.0522 33.2493C60.8002 33.5013 60.4736 33.6273 60.0722 33.6273C59.8949 33.6273 59.8062 33.576 59.8062 33.4733C59.8062 33.4453 59.8389 33.38 59.9042 33.2773C59.9696 33.1747 60.0256 33.0487 60.0722 32.8993C60.1189 32.75 60.1422 32.5587 60.1422 32.3253C60.1422 31.952 60.0209 31.658 59.7782 31.4433C59.5449 31.2193 59.2276 31.1073 58.8262 31.1073C58.2942 31.1073 57.8649 31.3687 57.5382 31.8913C57.2116 32.414 57.0482 33.1 57.0482 33.9493C57.0482 34.8173 57.2396 35.508 57.6222 36.0213C58.0142 36.5253 58.5416 36.7773 59.2042 36.7773C59.8762 36.7773 60.4922 36.544 61.0522 36.0773Z" fill="#BBBBBB"/>
</svg>
