<svg width="16" height="16" viewBox="0 0 16 16" fill="none" xmlns="http://www.w3.org/2000/svg">
<path d="M6.2195 0C2.78539 0 0.000915527 2.78447 0.000915527 6.21861C0.000915527 9.65275 2.78539 12.4372 6.21953 12.4372C7.54009 12.4372 8.76476 12.0253 9.77146 11.3237L9.77219 11.323L14.3842 15.935C14.4698 16.0206 14.6059 16.0228 14.6937 15.935L15.9367 14.692C16.0222 14.6064 16.0179 14.4645 15.9359 14.3826L11.3246 9.77127C12.0262 8.76385 12.4381 7.53915 12.4381 6.21861C12.4381 2.78447 9.65364 0 6.2195 0ZM6.2195 10.974C3.59305 10.974 1.4641 8.84507 1.4641 6.21861C1.4641 3.59216 3.59307 1.46321 6.2195 1.46321C8.84593 1.46321 10.9749 3.59216 10.9749 6.21861C10.9749 8.84507 8.84596 10.974 6.2195 10.974Z" fill="#D4DAE6"/>
</svg>
