<svg width="24" height="24" viewBox="0 0 24 24" fill="none" xmlns="http://www.w3.org/2000/svg">
<g clip-path="url(#clip0_3_214)">
<path d="M16.1209 6.57609C16.4725 6.22222 17.0413 6.22222 17.3929 6.57609C17.7445 6.92995 17.7445 7.50362 17.3929 7.85749L10.9079 14.3853L15.4609 21.9239C15.6265 22.1981 15.8869 22.1957 15.9949 22.1836C16.1005 22.1691 16.3561 22.1039 16.4473 21.7971L19.2338 12.4191C19.3778 11.9384 19.8782 11.6655 20.3546 11.8104C20.8311 11.9541 21.1023 12.4589 20.9595 12.9384L18.173 22.3152C17.903 23.2222 17.1565 23.8599 16.2241 23.9795C16.1197 23.994 16.0165 24 15.9133 24C15.0997 24 14.3556 23.5821 13.9224 22.8647L9.00224 14.7174C8.78744 14.3599 8.84144 13.901 9.13545 13.6063L16.1209 6.57609ZM21.0047 0.0927527C21.8267 -0.146378 22.7172 0.0842986 23.3208 0.699033C23.9244 1.31256 24.1476 2.20749 23.9016 3.03599L22.4027 8.07826C22.2599 8.55773 21.7607 8.82947 21.2831 8.68696C20.8067 8.54324 20.5355 8.03841 20.6783 7.56014L22.1771 2.51667C22.2611 2.23406 22.1111 2.04324 22.0427 1.9744C21.9743 1.90435 21.7823 1.75217 21.5051 1.83309L2.19525 7.44783C1.88804 7.5372 1.82083 7.79444 1.80643 7.90072C1.79323 8.007 1.78843 8.27271 2.06204 8.44179L6.12538 10.9418C6.549 11.2027 6.6834 11.7606 6.42299 12.1882C6.25379 12.4659 5.95858 12.6205 5.65497 12.6205C5.49536 12.6205 5.33336 12.5783 5.18695 12.4877L1.12361 9.98647C0.318381 9.4913 -0.104034 8.6 0.0219709 7.65918C0.147975 6.71715 0.789998 5.96956 1.69603 5.70628L21.0047 0.0927527Z" fill="#FBF9F9"/>
</g>
<defs>
<clipPath id="clip0_3_214">
<rect width="24" height="24" fill="white"/>
</clipPath>
</defs>
</svg>
